<mxfile host="Electron" modified="2023-09-26T13:11:07.226Z" agent="Mozilla/5.0 (Windows NT 10.0; Win64; x64) AppleWebKit/537.36 (KHTML, like Gecko) draw.io/21.6.1 Chrome/112.0.5615.204 Electron/24.6.1 Safari/537.36" etag="eLcXwYW0SJqevoW1UnTj" version="21.6.1" type="device">
  <diagram name="Página-1" id="Blhv3m7aih1FwB_w2zbJ">
    <mxGraphModel dx="1292" dy="762" grid="1" gridSize="10" guides="1" tooltips="1" connect="1" arrows="1" fold="1" page="1" pageScale="1" pageWidth="827" pageHeight="1169" math="0" shadow="0">
      <root>
        <mxCell id="0" />
        <mxCell id="1" parent="0" />
        <mxCell id="1UHYk_NCJkt_y42l1zSV-28" value="" style="rounded=0;whiteSpace=wrap;html=1;" vertex="1" parent="1">
          <mxGeometry x="39" y="30" width="600" height="480" as="geometry" />
        </mxCell>
        <mxCell id="1UHYk_NCJkt_y42l1zSV-11" value="" style="rounded=0;whiteSpace=wrap;html=1;" vertex="1" parent="1">
          <mxGeometry x="59" y="90" width="550" height="400" as="geometry" />
        </mxCell>
        <mxCell id="1UHYk_NCJkt_y42l1zSV-4" style="edgeStyle=orthogonalEdgeStyle;rounded=0;orthogonalLoop=1;jettySize=auto;html=1;entryX=0;entryY=0.5;entryDx=0;entryDy=0;" edge="1" parent="1" source="1UHYk_NCJkt_y42l1zSV-1" target="1UHYk_NCJkt_y42l1zSV-3">
          <mxGeometry relative="1" as="geometry" />
        </mxCell>
        <mxCell id="1UHYk_NCJkt_y42l1zSV-6" style="edgeStyle=orthogonalEdgeStyle;rounded=0;orthogonalLoop=1;jettySize=auto;html=1;" edge="1" parent="1" source="1UHYk_NCJkt_y42l1zSV-1" target="1UHYk_NCJkt_y42l1zSV-5">
          <mxGeometry relative="1" as="geometry" />
        </mxCell>
        <mxCell id="1UHYk_NCJkt_y42l1zSV-9" style="edgeStyle=orthogonalEdgeStyle;rounded=0;orthogonalLoop=1;jettySize=auto;html=1;entryX=0;entryY=0.5;entryDx=0;entryDy=0;" edge="1" parent="1" source="1UHYk_NCJkt_y42l1zSV-1" target="1UHYk_NCJkt_y42l1zSV-8">
          <mxGeometry relative="1" as="geometry" />
        </mxCell>
        <mxCell id="1UHYk_NCJkt_y42l1zSV-10" style="edgeStyle=orthogonalEdgeStyle;rounded=0;orthogonalLoop=1;jettySize=auto;html=1;entryX=0;entryY=0.5;entryDx=0;entryDy=0;" edge="1" parent="1" source="1UHYk_NCJkt_y42l1zSV-1" target="1UHYk_NCJkt_y42l1zSV-7">
          <mxGeometry relative="1" as="geometry" />
        </mxCell>
        <mxCell id="1UHYk_NCJkt_y42l1zSV-18" style="edgeStyle=orthogonalEdgeStyle;rounded=0;orthogonalLoop=1;jettySize=auto;html=1;" edge="1" parent="1" source="1UHYk_NCJkt_y42l1zSV-1" target="1UHYk_NCJkt_y42l1zSV-17">
          <mxGeometry relative="1" as="geometry" />
        </mxCell>
        <mxCell id="1UHYk_NCJkt_y42l1zSV-1" value="planejamentooperacional-dev&lt;br&gt;(Azure Container APP Environment)" style="image;aspect=fixed;html=1;points=[];align=center;fontSize=12;image=img/lib/azure2/other/Container_App_Environments.svg;" vertex="1" parent="1">
          <mxGeometry x="219" y="250" width="68" height="68" as="geometry" />
        </mxCell>
        <mxCell id="1UHYk_NCJkt_y42l1zSV-3" value="PDP-Diário" style="rounded=0;whiteSpace=wrap;html=1;" vertex="1" parent="1">
          <mxGeometry x="459" y="134" width="120" height="60" as="geometry" />
        </mxCell>
        <mxCell id="1UHYk_NCJkt_y42l1zSV-25" style="edgeStyle=orthogonalEdgeStyle;rounded=0;orthogonalLoop=1;jettySize=auto;html=1;startArrow=classic;startFill=1;" edge="1" parent="1" source="1UHYk_NCJkt_y42l1zSV-5" target="1UHYk_NCJkt_y42l1zSV-21">
          <mxGeometry relative="1" as="geometry" />
        </mxCell>
        <mxCell id="1UHYk_NCJkt_y42l1zSV-5" value="" style="rounded=0;whiteSpace=wrap;html=1;" vertex="1" parent="1">
          <mxGeometry x="459" y="294" width="120" height="60" as="geometry" />
        </mxCell>
        <mxCell id="1UHYk_NCJkt_y42l1zSV-26" style="edgeStyle=orthogonalEdgeStyle;rounded=0;orthogonalLoop=1;jettySize=auto;html=1;entryX=0;entryY=0.5;entryDx=0;entryDy=0;startArrow=classic;startFill=1;" edge="1" parent="1" source="1UHYk_NCJkt_y42l1zSV-7" target="1UHYk_NCJkt_y42l1zSV-21">
          <mxGeometry relative="1" as="geometry" />
        </mxCell>
        <mxCell id="1UHYk_NCJkt_y42l1zSV-7" value="" style="rounded=0;whiteSpace=wrap;html=1;" vertex="1" parent="1">
          <mxGeometry x="459" y="374" width="120" height="60" as="geometry" />
        </mxCell>
        <mxCell id="1UHYk_NCJkt_y42l1zSV-24" style="edgeStyle=orthogonalEdgeStyle;rounded=0;orthogonalLoop=1;jettySize=auto;html=1;startArrow=classic;startFill=1;" edge="1" parent="1" source="1UHYk_NCJkt_y42l1zSV-8" target="1UHYk_NCJkt_y42l1zSV-21">
          <mxGeometry relative="1" as="geometry" />
        </mxCell>
        <mxCell id="1UHYk_NCJkt_y42l1zSV-8" value="" style="rounded=0;whiteSpace=wrap;html=1;" vertex="1" parent="1">
          <mxGeometry x="459" y="214" width="120" height="60" as="geometry" />
        </mxCell>
        <mxCell id="1UHYk_NCJkt_y42l1zSV-12" value="rg-planejamentooperacional-dev-eastus-001" style="image;aspect=fixed;html=1;points=[];align=left;fontSize=12;image=img/lib/azure2/general/Resource_Groups.svg;labelPosition=right;verticalLabelPosition=middle;verticalAlign=middle;" vertex="1" parent="1">
          <mxGeometry x="79" y="104" width="31.88" height="30" as="geometry" />
        </mxCell>
        <mxCell id="1UHYk_NCJkt_y42l1zSV-13" value="" style="shape=image;verticalLabelPosition=bottom;labelBackgroundColor=default;verticalAlign=top;aspect=fixed;imageAspect=0;image=data:image/png,iVBORw0KGgoAAAANSUhEUgAAALMAAACuCAYAAAB9XDy2AAAAAXNSR0IArs4c6QAAAARnQU1BAACxjwv8YQUAAAAJcEhZcwAADsMAAA7DAcdvqGQAACO6SURBVHhe7Z0HnCPVfcf/u9ombe97264Xrh9X4ejNQMCGo7hgY5IPjoN7SDBgwAGbxDFJ7JjEBbDzAYIvNtgGEsfEgIHEmHJHMeUad3B3W29739VqJW3+vzdvpNFoVFdlpJ2v9um9/5S3I+mn//xfmVHOLEMWFllArswtLDIeS8wWWYMlZouswRKzRdZgidkia7DEbJE1WGK2yBosMVtkDZaYLbIGS8wWWYMlZouswRKzRdZgidkia7DEbJE1WGK2yBosMVtkDZaYLbIGS8wWWYMlZouswboGMA5GZjx0eNxFA5wPu7w0zPkQypxGZrw06FLK/ZyD4rxcKsrNEanQppTtnDfZ82ihI5+WOAqomctLigvE9smkc2qG9g456eD4NHU73TTh8ZItJ4cq823iWNaXFdHOarvcOrOwxBwBfOCH+IM/OOaiA2PTotw3rYg0GTTZ82lFSQHtqLTT9io7tbCdCF4cmKSfd47SS5xHooS/fJctKKVPtVZQTYFNLjU/lph1HJlw0VMnxmk/Cxfea5Q9bTqpL8yj02sctLXCTjtY3BBaLOAM8Q+HB+h/esblkugp5DPIV5ZV09VNZXKJubHEzIy7vfQb/rCf6BoTntesIBw4vdpBlzeW0qlVDmKthWXf6DTdur+HQwu3XBIfu/j/3bayVlrmZd6KGS9679AUPdk9Rs/1TZDLm1lvQx177A9zKAChwXvreZeF/IW3ummMv6iJ4KL6Erp7dZ20zMm8E3PvtFsI+AlOJzgezgZ2sre+d32DtIj6+TVe90aXiPcTyTUt5XQjhx1mZd6IGbHjDz4Yol92jcoliaGaG0iLHAVUZMshO3os0FvBZcSb6LEAE+wdnV4vTXlmyclpistDLg+9N+4S6+fKpQ2ldOdJ/jDgpnd7xNkmGXx7TT2dV1csLXMxL8T8SPsIPXBsSMTGc6GxKI9WlRbSypICOolzpKo5tvaPTs7QMW50QtgfcP42hwc4e8TCz7c10zLZrfds7wTdvK9HlJNBqz2fHt/RIi1zkdVifp690/feH6T2qRm5JDYq8m2iB+EUTjiVoy82FXTw8e7heB7ptSGn6MMOxfZKO/1g4wJpEf0ZhxdvjTillRzuWFlDlzWar4cjK8WM7rV73hug14en5JLoWVNWKHoMTqly0Foum4FD7LWf6hmjX3ePBwn7ayysK6SwsN0n9naIcjLZXFFE929qlJZ5yCoxIx797vsD9IvO2OJixLiXcNx5VVOZ73RtVtBfjAYsvDZ4eHOT+AKCh9qG6V4+E6WCF05fRKUx9nknm6wRM7zxV7nhc5xj0GiBcCHgixtKyCEba5kChqUh6s8tqZJLiG7hWPkZjplTwY84tNnKIY6ZyAoxwxN/671+aUUGnuxLLIItJvsw5sq1r3XSvrHUDPp8fVUtfWRBqbTMQUbPmpv0eOmv3umJWsiLHPn0j2vrxak524QMxvj9SBWYoGQ2MlbM6Mr66J4OeqE/8mm1ttBGt6+spce2tdDZtebsI00IKTzH5pjwfJ6RYv5p+whd+3ondUUxwrWLW/qPb28V8xkizWXIdCpTOMOt3ISz6TJKzHAGdx/qo+8cGaCZCHMp4I3v37SAbltZQ3ZblqtY0sphVKpI1NTURJIxYoZ07zzQR493jSkLwoButl9tb6HNFdkXF4cjVf3i+XyKW1Nqvi7MjBCzKuRfnwgvZIzQYcLNXSfVZlxXWyLYWeWQpeRyRjWmn5rvbGf6TxxCvm1fb0QhLy8poEe3NYth5/nKgqI8OicFDdxLTNYlp2JqMSMshpB/2xv+KgnMnXjw5KY5T/rJBj7ZWiFLyQEDJfDMZsS0YoaQv7qvJ6KQER/fu36BGJK2INrAcfM1zeXSSjxfWFIpS+bDlGL2zM4KIWPWWygg3S8urRLxcbZ3ucXKjcuraVsSBoVuXlHDjcwiaZkPU4oZ0zbDCRl8ld/Y65J8So2Hjv1uOrw3uVMwowGT6BPZu3HD4irTX9hqurkZLw1O0hffOiEtY65lEX+ZvXI6cU3N0mCnl4a6vTTMaeiEl0b7vDQrR3m7jw7TylMLaeP5JdS0Mj3eDMP9t+/vo/+NYpQ0HDctr6GPNZv/Cm1TiRk3T9n1anvYizBxyQ68Tsrgd2d0QArWJ9xZmhoNPzeh/cAIDfZM8u5eqmnNpw3nldKmC8qotiX1/bMPtg3TDz8YIneMH/V6TMhaWk2bKswbWmgxlZivf7OL3hwOfYrGTVF+sMF/VUWi8cwQC9YT4G2HOWF5rLQfGKYBiFm8veyxxcNLjcsLadP55ZwqqKI+daNouMj10c5ReqpnPOI0AFy9giu/L6wvkUsUOnm/V/jMqV4MYDZMI+b7jg7R/ceGpBXM0uICemhzU8KGpidHZoVQfcLlND7IokvQu6H1zELIIv5QBI1nCHzhWgd76wradG4llVQG3y4gWWDu96ExF3U7ZzgUmRX346jIzxXX960rLxSXi+n5w8Ak3bKvV1yY+8iWJlpZYo6rcLSYQszwxvDKenCbKsw3wGDAtS0VcfUjQ0MjvYpYleQR4p2exMvGFyM5eftBiHlCema/iPWihp1jm6VlJ5fQyedX0cZzqsheYp7+clxk+yN2NL/TNMhxQe/urc3SMg9pFzNuAXD1ng4akDcZBLjG7K6T6oSIY2FmWmmUqZ4WCUL2ompjzSUth5iHwnhmvy2XiY/BS7kceZy0vZxOvqCa1p9eSQX29Agbjce7D/aH7Oe/YXElXb/IXH3OaRfzNw/2iRuyqOAqEEyej8SYbJQNQrRdisedHE7rSwmg/dAwDfVO+UQaKFpZxiOkyL2UX5RDa0+rpC0X1NKaU6soj0OBVPLX74bv639sW3NK7lwaLWkVM05hV7FX1vKv3MDD8LSKh9sqIrbtUhpmQrhsu9kLm5mOQxxmsJh9Qg4j2kBbLtN9CYqKc2nj2TW05fx6WrWtknJTMFI06vbSla+2B5w1tawuLaR/5/jZLKRVzF95+wT9XneL1Wd2LvTFxu373PTibicLmg8RRxnmtG62vOO9UfbMam+GFCgeUYs6tF1alU8nn1tH2y5ooKUbKimZE9heHpwS96wLBfr70e9vBtI2AvgGN/r0QgbaRt7RN9zknmExzObwx8hwLvDZ4i/l63Nycjm2zSEbJ6P1vu3wQFEuFsWQNraGzc9BtigpDy6PDc3QC4+10z2f2UM3X/o8Pfa9g3ScY/RkgLPklWFG/n7IjcN4b7KTaNLmma95rZMO6q4kRhfRnrMWS4vouZ9MUsdBt/gQ4ZXwgbJSUmZDOKxbsuWxePk7lsOndhu3SbEc69H/7Bw3Pr7Ow9wA7JtbzByrXd9azN66kXZc3EwNrYF9xHMBd0hFOIg7LRlxXm0xfXttCgeyQpAWz4z7oemFbAyLw8DrJdqGLHJZtfC0BUW5VMDxqaMsn4or8shemkcFjlzKK1DW45iiql9Imh9iF2Wd3xamyIJtfhY2tg5li5Ly0Ng9bRP0nz8+RLfuepb+5prn6NWnE3N3owL+Et+0PPTdP5/rnxADKukm5Z4ZUzs/8kqb4SiU3jP/7sfsmQ8k902CUCHgePBwCDQ1Ztw46n5/jD1zcmLmQHtWnC0aFjuoZUUZta5EKqeFnOwliR1h/MTezpA3Y0cocuuKGmmlh5SL+ecdo3TP4X4xbRMXRWIkCZ3wK+XdNbUx81zELBwWV5VrY4+KUUN+ldNTwcKzl9qkx42dsGI+MkbD/RxmRBSlXCY+BrkuyOaH3L7AnkPNK0pEauEE8TYuLUlJt124SWC4LvBpbryXpfGWXSkXM0KMukIbLWcRRxqafvYBFvN+jtOwGY7SIEcxl+vJ4WTLy6Fcfi9zOLfxm6t9YYrw+Iuh2x9hRLxids94yTnKYtbUp+Zd74/SSL8zhEhlGY8wnre0Oo9FWyxSy0rkJVTb7FCiihhwu+Rgkjp83+OlwQ5OPRO0bGsebfpQCdUtiq6/ONxdRv98USV9dnH6BlLS2jUXCZ+YdWrJ5y+Djd/7XCHe6D5ZIWYIT1MPcnvZHDwzi0R8QXTHh7z7A8Uz+4QcRrTIq5sLqHmlnZqWO1i0nFYVU2ll7GHCxNCsIlghXKVvHsuMGDwxJUYqwYJlBbTxglIxZbW8LvTIK3646J+PDBreYbU830ZPndoqbrSeDtIuZnXCj+o1dn7MP4HlmfsnxGR3PQ4hwNhOZ243C28kuC57eR7l8ZciHtwub8gw4wTEPKD2ZgSLON9OtOPDVbTuzHIWroMK7bG9HgzRj7CHFQNJEC9yfg9nnNF/nFoxq8DrL1pfJIS97pwSfq+Njwu/woWG37O94+J3BdXppbgaJV2T+FMmZnyGI338pssRPPUDUCb8KKAhc/Vd/quLM13MIwMcZhh44gJHDn3u+0uEJ44GFwtUP+dEeyFAvBiJWQvCtuXb7OytS2n1GY6QDWX8IgFuk4afnmibnKFHt7Wk5VK2pIhZmReMN51Pc2LeBH8Q7EW8wVoKQC/mp++boPZ9M0En8WIWYKyhAQZfIGZtPciFmOONmTnMmBxFP3Pg8SE/cUyKWby9UtDI2b7os3V03nUGv9zEm2LOiXi/5BceaWoUdSSeSGLWgnkiq08vFsJesd0uhG4EfrcFa9JxgXHCxHzsj27qPKjEaGP98bkMG4eIV9+pEfOPWMwcM2tFgjwzxDxOoyE8880/W061rUo4BY979E03DXR4hIDjuRAgXga7WcyHYh85ROiBEATx9aIN9pgbpMkitnN1GF5+bJra3nHHLWQjFBEgcVmf+7aJNg9Vj7KFf7voc8P6ZI4NULdaBqLIT6qQwb7nXfTeyzM00J5aIQviFOHkqJdefWKU7vt8F/39ruP0m+8PUNfh9P8YaMLEnBDkh+4Do2ohR9r4T6hDMYUtcwFslH22wUidWK+pT+YC2GK9YhqtV/IQx8coI3SiIG1OumDSYxxyZwwjvW76v93DdO91HfSda9rpuQeH2OOn+lupYC4x61C8HJ+YvUo+q+ZCZX58psx1q6Xt399Xn1iBHOtFUckM90dBZr5cV5+mfi9stW7xhN05l+VspPeYi55+YJDuubKNvv+ZDvrDoyPCi6cKU4tZoH72eg3ol5tsPbyyeBaZ4o2VZfOD9v3T9F/f66e7LzlGD97UTW//bly0MZKJucUM76ZP8H7qA7Y+V1PQclTHucYrK2W53LedTKqtz/Xr9UnWr6gbZVn0Z/MKr2eWDr40Sbu/3kPfuOgY/fJbfTTYlZwwxOSeWXoyTVwakPs8XZT5XPcPlYc4PqOY2TRN/zTgcnpp769H6d9uDD3Zfy5kRMysT/zESWwQdS4eyNWkemhswLm6Xax5QJ36hIe6PTLsJMvzmf72eemZGXg5oQElV72eXhKRbLUe//5zq89ny3r1xyf98ryNmdOByT0zkvRyAQkr1fVKimQH7K+Jm/kJf5xrt43F9tflS1w/4BLbyraKbZFMTO+Z9QKYqyBSVh8X/J5ZWSSyeRwzJxvzx8zs5UQ/riYP8oT6hIfBcl89sNX6dNuIFGJ/X9KuV+vR5uo2YjvxQpTXww+1bJF4zO2ZfZ+76s2izDVxq2GegvVKfKx6ZmW5sswiWWRAzIykeDhtLreIPsefUT38J59izo3q8+fYRrHV3WRmkSRMHzPr9BN/rhLt8rnmjPDPioOWNp4s75wszB8zIyEW1eRwd9CMKEabI+nqUXLddjHkKBgdH3JsIR7qDnKJWrZIPOb3zBmL8MtWzJxCTN8A9HlPXy6dmzCMcjWptj8XRbm/Wp92vX9fo+Vq7l8vFoU4PpHw4Fxs788skoS5wwzxzN5MFNScUW2BPlcxWK/f37AeFf1yg/X6egLqxxLVM6s2nqRhkXBM7plln60+F6sUO9pkWI8mjyvxcYStDw/lYPFqhK2WLRKP+WNmfP66PF709cyhKj/6+mSuxMdWzJxKzB1mQBjwcCIe9edYITPDJARltEzdX1NfyG3DJP96fz3aXNSPjfAstwcys0gS5vfMAtWjKblyMXtoQotGv79xPZFE51+vr0dbv4iYrZg5hZjcM8PbqTm8nN9WXB42UrJIttgXSV9flPsb2Yb1+Y5PvcWAsq3YBTvLskXiMXkDUHox8flzWdVBhth+z4wnZYlF8jC/ZzZIYl2sD4N6fCnOhzgOo/qQ1GNUCgKZWSSJDImZGb0SYrX1zLW+SDbj98yqjSfLOycLk3tmknOEZX+uKCu20A4/qZ5PtdWk2r71uv199WED5U95kkm1w9WP/UMeH2w8xIZ4wj7YUSlbJJ7M8cyCwBuIGxF+vX7/YC8ZW/36/f31K/GxFTOnkgyImWWuejvYkIxYjo1iyYPri26/EDkewvbXp9pYL7ZALsq+zCJJmN8za8TgK8erCt3+QmhzQVef1kZmxcypxfQxM7yc4byHmJOMazkF1qP8j7kkfb3I+b+xoGHLF4JMqFwpWySezPDMQXkk72awXr+/vt4AYqhfX49aPye/Z1a2h22RPMwtZvZicGS+JOJSTlAM//kSCLD5KcCWRXV/fhIJtrJabiATngJsmftsfsKfPmnqVzZRjh9luZdFEjF9mKEUZK6SENvAu6okzDaImS2ShunDDJ8X1SSIBXqJJfGOQfUodXGu2zbahCejOkXCen7motzYl1kkCZOHGTIBtRyvDYzWq6i2fn04W59r1zP+mFm18WT552Rh8jBD9hBgpE16PDXHA8oReRR2wP66+qLZ38gOeXxs+7fBbnhS9lbL85nqpsT+preKycMM1YtxLjSQQTYnv2dWlsOe76w9s5g+fU+DtBKL6T2zfmQNtlSOsFEUeZS2vr5Y99faMIyOT7E54YFN5ebqXvON4nIbnfnJCrr18YX0yb9riPp3umPF9A1AgSoGVQ1xqkK/v8+Ok5D1iVzrmWHLbB7FzC2rC+nq2+vo1icX0kU3VIf9Te5EYH7PzEmNQwNsFkxMSeMxA+vTbRdTMqpP2vN0BBC/5LrlklL6wk+a6fMPNNPJF5XG/aOhsWL+mFmIQbECyvGg7p+o+oBRfZyU+Fj1zMqHqSzLThA6XPqVGrr9PxfRlbfWUfMq/w93pgpziVn3WaueDs5MmyuCiTHnJ1HkJ20uViIXC2PPjY5PyXkb3kDkoqxkynI/eQWZK3D85PP6c0voz/+1kW78aQvtvKqcCovTJ6mE/eftVxRS82obFRUn+sNR68u0HKXgmBn2cI//B2o2fiiflmzO43jS5CdJDZUL8uhDf1ElGnSf+EY9Ldlkl2vSS8J+CF7L+KCX+o97qa/NI/KRXvyav1wZBhu3D66+y/9D8Lu/3kdH9kwpKtDsX9Nip0KHTVqMbr2RPT3Jx9LGdUlbXV/TKuuKsL+R7Zzw0EBH8PHBdk25aWbGw68bK2T8jJzty29cQKddVa1sq2Fmelb8hnY/p4F2HK+X69FWnFgGT0xR+8Hofgg+h79rq04pph2Xl9GKHQ41cgqgb9pDv+gapRZ7Hl3SUCqXpo6kiFmP+iENdCBBAF5yjgX/W1s+i/lOjZjvYDHvVQSIrdX3L0jMUeCc4v+riplR6xNitsdWl4pPzIz2+ICL/5/bzWL2NQTRp6gI2lGWS9f+bSst21yibBwG/LA+xN3PjgHv4XAP14eqEkA0Yi6tttHWS8to+0fKDHsj8Lr3DE7RYyzi/+2foHxW+bOnLSSHLfVnmpSI2YipURa4RtyDnV7yumcDPfMdvXQYnlmHEHNxXoB49OjF5RSeeVJaWjE7qMjgi6HfXw/WO8fdPjHrwQ84ut1u6ZmlV8ZDI+qW1XZaf1Y5LVpXTEs3RhY28HCEgvcMXlt4bxa4cxz/I3bCiXnpZjvtuKyMVp9RzGfM4HdizO2lJ7vH6Jedo9Q25Q+bPtZcTjctDz7rpIK0idmI0T4vldX6v9G7b++l91jMOfxtx2GqeW5uDuUX5VIBe9SCQs4deeINx6kPr8Yohxftb58KqAc5vhhFxbaQ+4XLlTon2Q48PuQup4c8ITxzoK0sQ4jVvNIuhL1kQ6lIpZXRDfuOD+HMpwi8n/PhbnYMHrkyDHox20tzafPFZSKUqGkJ/b//8fAA/UeH8Zfgv05ppcai5PYnhyLlYu52umlBlC/2p7dBzPCmrB7+yMPlObmzHC7kscBZ3Fx/AYvdlo8vhrLeOemmvuPwooH71S5kMfOXQb88mnxqXBGz0fqZaTd5PCxc8fZKASMXtizjEVLkXqpqLKQl60s4lYnUtLSYXyf+R3i8bvbenUpYooYoOBPqUcXcsrqIduwqow3nlkTsXXlxYJK+/PYJaQVyfl0x/f2aemmlnpSL+XNvddP74y5aW1ZE68oLaV1ZIa0pLaIiW/CbqIjZ+DQeDTaOHuC984tswluO9E3LNX7qEDNzyBIPCDP62Nsb4ebGkJvF7L98KrRoA225zOBLgG6vxWvZa68vp6Wclqwrl1/EyEyOIKzjLx83yOG94cXz7S467ePF1LA0uuFlNx/Drlc7qFMTVmh5eHMTreHPM12kXMz7Rqfp2tc7peVnWXEBbam0B8Rbj3yth957lcUS7PgSltciZuYwIx6mWMyih8SgXo+LY2aP2pshBYlH1KKObOP/NLK3XrahgsVdwXkV1TY5eH1yeKR9hL57ZEBagWwsL6KfnNworfSQ8iYnvrk7q4Pf8CMTLnqMGxOBQB0M9JCkfIA9a8/RSRrqdtL4oEt04c1GEW8KItQfqp/Z2MbWsPk5yBYl5aGx8X86j4zR759sp7d+30tDvfGfxSIxPOOh+44OSSuYT7aUy1L6SEsD8ODYNF3zWrB3Bq+fvUSWiH52Zy/t+78JLuHD0x5m8m00KBF/56OByWFKfqGN8riMLVXgmftED0nw/mj8zTVmjmRX1BbS6Zc301lXtFJpVXJmoql882AfPdE9Jq1Amu359OSOFmmlj7T1ZvzVOz30Qj+EGsjTOxdSdYFy2j/w4iTtvqOHj5LFgsM0QV5QiJ6UPCFyvHUjvRyHG2zncaNHAQKMVaRyGepR1+nslVsq6Mwrm2njWXWiZyfZHOY2zsf3dvB/NuaetfV0bq2/SzVdpE3MxydnuDHRLi0/3+Y35jzNGzPjnKWOg9PUvt/JifN90zQ+FG0ckD68nlnyeBMXM6Pxt+NP6umsq5qpfmHy4mIj/uyNLnprxCmtQM6ocdB31yVnsn2spE3MADHY/ccC4zCcsh7c3EiV+aEbZUPdbr+4OXUddokBFzOB4/GyECOLVi4L4YkblznojCsX0NYL6+IeqZwL4Rp9dlsO/Wp7C9UVpqdfWU9axQwue6Wd2nVdPQ18Gr9lRQ2dbtBQNMI9M0tdh6apTXhuJ7Wx9x7pdRud/VOWq/GysUhlGQ8DkWNYf8PZVSziBlq6oQwvMS28Oeyk69/sklYwX11eQx9tTt/x6Um7mF8bmqLP/rFbWoEsLS6gsznkuGFxpVwSPaP9Hp+w2zjvZLG7XcpLZa2xbEKTiPW41S0m6fuEHNIz++2K+nw69bJaTnVRj/4lC0wa+hjHyejFMALjAw9ubpKWOUi7mMEd+3vpNz3j0grm+kWVcQlaC2LYbg5HIGxV4INdbl4zy+LLEYJSZKiKVbXjXA8xQ6gRPDHEvnxrCZ12RS2tPb0iJQ26SPChc5zcSe+MBg8yARufev5ja5NwNmbCFGLGpJWr93RQ7zTEFQw+3n9e30CnRRl2RMvEsIfa3lWELbw3NzSn1SmXyLS6itXGZVTiYSziopIc2npxJe28ooZqW9I3ambEPYf76ecd+j5/P3+6sIK+sKRKWubBFGIGGBn8U241e0IcDoa779/YmNThUujtxAfSe7+rCLyvjeP5uN4hIWHpmaWgOW9cXkin7qqizRdWiO49s/Fc3wTd9G6PtILBJCI0+vJNcAbRYxoxA8zEwoysUJTm5dIDmxppeUnqTm9TY14ZeyvhCcpT4/Cy0aAIOJcb++vPKaFTdlXQonWp7VaLhT8MTNKXQkwiUrl/0wLaXGGOK0v0mErMINRgikpVgY1+zIJe6EhfA6nnqEuIuv3ANB1720k97M2NwHTWHZeX0/aPlFNxReq71WIBs+Hw3mMyUShuXlFDVzeZp/dCj+nEPMUNNTQ+3hs3Fgi4bEEp3bGqVlrpxzXF3nv/NB1/x0lvPz9BrgkvXfT5Klp3dnQT7tMNnAeEHI5Pt1bQl5aaL07WYjoxg0GXR8zd0DcIEaZ9ZlElXb+wUpS1THAj8tD4NO/joSHeH4FACYclNYV5tIy9eH2Uc6jnG89zjHzzvt6QbRVwnpynbL4oORBTihm8P+Gi617vokkxJ5hP2SzM76xroE0VRcIGLu8svTQ4SS8PTtGrnPSDLyqItbdW2mk7p1OrHWm7EsJs/LZ3nL7GQg4H3rcfbVwgLXNjWjGDN4addMMfu8mRl0M/3LCAVpX6ezJeG56iJ7rG6Kkw/dNGbCgvpA8vKKMPN5Swdze7r0keEPJtLORwHz76kR/a3CSGrTMBU4sZPNM7IS5d1wr5Zx0jtJtT55Rxv3Q0fLy5nD7RUj4vvfS97w/SQ23D0jKmid8XjPChwZ0pmF7Men5yTJmclIh5RR+qL6G/WFxJrfb0Dh2nig4Ow25hb3xgzHhkTwVh2SNbmsSkr0zCfL32YdjdPkL3JUjI4Lccojx0fJhGZ6LtN85cfn1ijD6+tzOikCFghBaZJmSQMWJGAw+hhSfB5xFcPYG78GQraEDfsq+H/uZAn68xHQo09nazR05nH/5cyAgx40N4nEWH2xQkg1+xmF/nBmW2AS/80T0dot0RCVzD9wNuZBdziJGpZMSRY3TqGW59Jwt8STAnIVtAP/3fHuqnT7/eRV0RHEBBbg59a00d/eWy6qC++0wjI8T8EocYyQb/Q3ubqUwEA0f/8v4gXfJymzjbhBsIATUFNhEfX1CXGSOVkTC9mAfYy7zCnjnZtE3O0DshrnMzOxg8QlcbRPwg59OYkByBk0oL6WfbmmlFCidtJRvTixlxXx8LOhUcGAs9H8SsPN41RpeyiNF3PMqeORpwc0N0vYW7zjITMb2YT4SYsJ8MjrJ3zgRwnN9j8V740nG6+1Af9Uf5ZYc3fpS9cbru0plsTD9oggGScHfSSSQrSgrF5UBmBI06XFr23yfGws4oNAKjeF9eWkV/0lBq+slCc8H0njlSIyaRIPbU8mjnKL3CDcNI/bPJArEvBjtws8nz/3BcXPIfq5AxZI+7DV2S5UIGpvfMD7eN8Ck19NUniWRNWRE9vFm5+R/elO0vHBVfJohgcXGBuCJ5nbx76RJHQUK7svA9wkzB/dxGEGl0mg6zPRNFY86IDeVF9PVVtbQoQwdA4sH0YsasuNv3h5+mmCguZu/1zZOUSf9DMx4678XjomxEISt5NYsb3VvVBXkix+kcN0SpyM8V5XouOz2z4oLdcfbuY1ynk8WJy/fFMk6Id3H9Y6g7BsUK/v9fLqvKmu62WDC9mHFaxX3OUsEXl1TRdQsrRBne8VMhbu5oRjDPe1djGZ1fW2zKi01Tgelj5mXF+eK+zckG94JYy6dmlbczoM8ZFyxgKusTHBPjusiL60vmrZCB6cWMCfS4QiTZbK8soi2aq1iejmI+Q7pAPHwXh0O/3bmQ/np5NbXMkymskTC9mAFuTr44yQ0Z3AZMBdceJiqGTRRofF7XWiHuWfFvJzeK3gnMq7DwkzGT8zFci1GuZHAOC/lO9nTF8rfr8IZ8MOESgn5rZFqEHKmct4ELceF98dMKSGtZyJZwI5MxYh6Z8dI/HRkQgwaJBHMTMGNsW4RQZmTGQ3+Uwn5r1Cm6zqKZAxEN6PVAA04VL669s7QbOxkjZoCfj7j3g0ExUT8RVOXb6Mss5Esa4uvGwiw1dLkhn/DM0hSXcdWKugyDLWiQlbDHxzxheH54XYctJ8C2vG5iyCgxg3fZIz7MIcfv5jj/GL9u9anW8rT8xrNFcsg4MQNcmPmLLuWnbuMZaj6zxiFuM7Wjyrz3fbOInYwUswpuK/Vc36S44V+om2JrwTVuaOxdWF8i+mgtsouMFrPKPm6Qvc3hx8Exl/g9QdyeC1dwIx5dXJxPyzmkQI/AKeyJM+R+JhZxkBVitrAA1rnWImuwxGyRNVhitsgaLDFbZA2WmC2yBkvMFlmDJWaLrMESs0XWYInZImuwxGyRNVhitsgaLDFbZA2WmC2yBkvMFlmDJWaLrMESs0XWYInZIksg+n92dZuMnEYu+gAAAABJRU5ErkJggg==;" vertex="1" parent="1">
          <mxGeometry x="549" y="140" width="20" height="19.44" as="geometry" />
        </mxCell>
        <mxCell id="1UHYk_NCJkt_y42l1zSV-14" value="" style="shape=image;verticalLabelPosition=bottom;labelBackgroundColor=default;verticalAlign=top;aspect=fixed;imageAspect=0;image=data:image/png,iVBORw0KGgoAAAANSUhEUgAAALMAAACuCAYAAAB9XDy2AAAAAXNSR0IArs4c6QAAAARnQU1BAACxjwv8YQUAAAAJcEhZcwAADsMAAA7DAcdvqGQAACO6SURBVHhe7Z0HnCPVfcf/u9ombe97264Xrh9X4ejNQMCGo7hgY5IPjoN7SDBgwAGbxDFJ7JjEBbDzAYIvNtgGEsfEgIHEmHJHMeUad3B3W29739VqJW3+vzdvpNFoVFdlpJ2v9um9/5S3I+mn//xfmVHOLEMWFllArswtLDIeS8wWWYMlZouswRKzRdZgidkia7DEbJE1WGK2yBosMVtkDZaYLbIGS8wWWYMlZouswRKzRdZgidkia7DEbJE1WGK2yBosMVtkDZaYLbIGS8wWWYMlZouswboGMA5GZjx0eNxFA5wPu7w0zPkQypxGZrw06FLK/ZyD4rxcKsrNEanQppTtnDfZ82ihI5+WOAqomctLigvE9smkc2qG9g456eD4NHU73TTh8ZItJ4cq823iWNaXFdHOarvcOrOwxBwBfOCH+IM/OOaiA2PTotw3rYg0GTTZ82lFSQHtqLTT9io7tbCdCF4cmKSfd47SS5xHooS/fJctKKVPtVZQTYFNLjU/lph1HJlw0VMnxmk/Cxfea5Q9bTqpL8yj02sctLXCTjtY3BBaLOAM8Q+HB+h/esblkugp5DPIV5ZV09VNZXKJubHEzIy7vfQb/rCf6BoTntesIBw4vdpBlzeW0qlVDmKthWXf6DTdur+HQwu3XBIfu/j/3bayVlrmZd6KGS9679AUPdk9Rs/1TZDLm1lvQx177A9zKAChwXvreZeF/IW3ummMv6iJ4KL6Erp7dZ20zMm8E3PvtFsI+AlOJzgezgZ2sre+d32DtIj6+TVe90aXiPcTyTUt5XQjhx1mZd6IGbHjDz4Yol92jcoliaGaG0iLHAVUZMshO3os0FvBZcSb6LEAE+wdnV4vTXlmyclpistDLg+9N+4S6+fKpQ2ldOdJ/jDgpnd7xNkmGXx7TT2dV1csLXMxL8T8SPsIPXBsSMTGc6GxKI9WlRbSypICOolzpKo5tvaPTs7QMW50QtgfcP42hwc4e8TCz7c10zLZrfds7wTdvK9HlJNBqz2fHt/RIi1zkdVifp690/feH6T2qRm5JDYq8m2iB+EUTjiVoy82FXTw8e7heB7ptSGn6MMOxfZKO/1g4wJpEf0ZhxdvjTillRzuWFlDlzWar4cjK8WM7rV73hug14en5JLoWVNWKHoMTqly0Foum4FD7LWf6hmjX3ePBwn7ayysK6SwsN0n9naIcjLZXFFE929qlJZ5yCoxIx797vsD9IvO2OJixLiXcNx5VVOZ73RtVtBfjAYsvDZ4eHOT+AKCh9qG6V4+E6WCF05fRKUx9nknm6wRM7zxV7nhc5xj0GiBcCHgixtKyCEba5kChqUh6s8tqZJLiG7hWPkZjplTwY84tNnKIY6ZyAoxwxN/671+aUUGnuxLLIItJvsw5sq1r3XSvrHUDPp8fVUtfWRBqbTMQUbPmpv0eOmv3umJWsiLHPn0j2vrxak524QMxvj9SBWYoGQ2MlbM6Mr66J4OeqE/8mm1ttBGt6+spce2tdDZtebsI00IKTzH5pjwfJ6RYv5p+whd+3ondUUxwrWLW/qPb28V8xkizWXIdCpTOMOt3ISz6TJKzHAGdx/qo+8cGaCZCHMp4I3v37SAbltZQ3ZblqtY0sphVKpI1NTURJIxYoZ07zzQR493jSkLwoButl9tb6HNFdkXF4cjVf3i+XyKW1Nqvi7MjBCzKuRfnwgvZIzQYcLNXSfVZlxXWyLYWeWQpeRyRjWmn5rvbGf6TxxCvm1fb0QhLy8poEe3NYth5/nKgqI8OicFDdxLTNYlp2JqMSMshpB/2xv+KgnMnXjw5KY5T/rJBj7ZWiFLyQEDJfDMZsS0YoaQv7qvJ6KQER/fu36BGJK2INrAcfM1zeXSSjxfWFIpS+bDlGL2zM4KIWPWWygg3S8urRLxcbZ3ucXKjcuraVsSBoVuXlHDjcwiaZkPU4oZ0zbDCRl8ld/Y65J8So2Hjv1uOrw3uVMwowGT6BPZu3HD4irTX9hqurkZLw1O0hffOiEtY65lEX+ZvXI6cU3N0mCnl4a6vTTMaeiEl0b7vDQrR3m7jw7TylMLaeP5JdS0Mj3eDMP9t+/vo/+NYpQ0HDctr6GPNZv/Cm1TiRk3T9n1anvYizBxyQ68Tsrgd2d0QArWJ9xZmhoNPzeh/cAIDfZM8u5eqmnNpw3nldKmC8qotiX1/bMPtg3TDz8YIneMH/V6TMhaWk2bKswbWmgxlZivf7OL3hwOfYrGTVF+sMF/VUWi8cwQC9YT4G2HOWF5rLQfGKYBiFm8veyxxcNLjcsLadP55ZwqqKI+daNouMj10c5ReqpnPOI0AFy9giu/L6wvkUsUOnm/V/jMqV4MYDZMI+b7jg7R/ceGpBXM0uICemhzU8KGpidHZoVQfcLlND7IokvQu6H1zELIIv5QBI1nCHzhWgd76wradG4llVQG3y4gWWDu96ExF3U7ZzgUmRX346jIzxXX960rLxSXi+n5w8Ak3bKvV1yY+8iWJlpZYo6rcLSYQszwxvDKenCbKsw3wGDAtS0VcfUjQ0MjvYpYleQR4p2exMvGFyM5eftBiHlCema/iPWihp1jm6VlJ5fQyedX0cZzqsheYp7+clxk+yN2NL/TNMhxQe/urc3SMg9pFzNuAXD1ng4akDcZBLjG7K6T6oSIY2FmWmmUqZ4WCUL2ompjzSUth5iHwnhmvy2XiY/BS7kceZy0vZxOvqCa1p9eSQX29Agbjce7D/aH7Oe/YXElXb/IXH3OaRfzNw/2iRuyqOAqEEyej8SYbJQNQrRdisedHE7rSwmg/dAwDfVO+UQaKFpZxiOkyL2UX5RDa0+rpC0X1NKaU6soj0OBVPLX74bv639sW3NK7lwaLWkVM05hV7FX1vKv3MDD8LSKh9sqIrbtUhpmQrhsu9kLm5mOQxxmsJh9Qg4j2kBbLtN9CYqKc2nj2TW05fx6WrWtknJTMFI06vbSla+2B5w1tawuLaR/5/jZLKRVzF95+wT9XneL1Wd2LvTFxu373PTibicLmg8RRxnmtG62vOO9UfbMam+GFCgeUYs6tF1alU8nn1tH2y5ooKUbKimZE9heHpwS96wLBfr70e9vBtI2AvgGN/r0QgbaRt7RN9zknmExzObwx8hwLvDZ4i/l63Nycjm2zSEbJ6P1vu3wQFEuFsWQNraGzc9BtigpDy6PDc3QC4+10z2f2UM3X/o8Pfa9g3ScY/RkgLPklWFG/n7IjcN4b7KTaNLmma95rZMO6q4kRhfRnrMWS4vouZ9MUsdBt/gQ4ZXwgbJSUmZDOKxbsuWxePk7lsOndhu3SbEc69H/7Bw3Pr7Ow9wA7JtbzByrXd9azN66kXZc3EwNrYF9xHMBd0hFOIg7LRlxXm0xfXttCgeyQpAWz4z7oemFbAyLw8DrJdqGLHJZtfC0BUW5VMDxqaMsn4or8shemkcFjlzKK1DW45iiql9Imh9iF2Wd3xamyIJtfhY2tg5li5Ly0Ng9bRP0nz8+RLfuepb+5prn6NWnE3N3owL+Et+0PPTdP5/rnxADKukm5Z4ZUzs/8kqb4SiU3jP/7sfsmQ8k902CUCHgePBwCDQ1Ztw46n5/jD1zcmLmQHtWnC0aFjuoZUUZta5EKqeFnOwliR1h/MTezpA3Y0cocuuKGmmlh5SL+ecdo3TP4X4xbRMXRWIkCZ3wK+XdNbUx81zELBwWV5VrY4+KUUN+ldNTwcKzl9qkx42dsGI+MkbD/RxmRBSlXCY+BrkuyOaH3L7AnkPNK0pEauEE8TYuLUlJt124SWC4LvBpbryXpfGWXSkXM0KMukIbLWcRRxqafvYBFvN+jtOwGY7SIEcxl+vJ4WTLy6Fcfi9zOLfxm6t9YYrw+Iuh2x9hRLxids94yTnKYtbUp+Zd74/SSL8zhEhlGY8wnre0Oo9FWyxSy0rkJVTb7FCiihhwu+Rgkjp83+OlwQ5OPRO0bGsebfpQCdUtiq6/ONxdRv98USV9dnH6BlLS2jUXCZ+YdWrJ5y+Djd/7XCHe6D5ZIWYIT1MPcnvZHDwzi0R8QXTHh7z7A8Uz+4QcRrTIq5sLqHmlnZqWO1i0nFYVU2ll7GHCxNCsIlghXKVvHsuMGDwxJUYqwYJlBbTxglIxZbW8LvTIK3646J+PDBreYbU830ZPndoqbrSeDtIuZnXCj+o1dn7MP4HlmfsnxGR3PQ4hwNhOZ243C28kuC57eR7l8ZciHtwub8gw4wTEPKD2ZgSLON9OtOPDVbTuzHIWroMK7bG9HgzRj7CHFQNJEC9yfg9nnNF/nFoxq8DrL1pfJIS97pwSfq+Njwu/woWG37O94+J3BdXppbgaJV2T+FMmZnyGI338pssRPPUDUCb8KKAhc/Vd/quLM13MIwMcZhh44gJHDn3u+0uEJ44GFwtUP+dEeyFAvBiJWQvCtuXb7OytS2n1GY6QDWX8IgFuk4afnmibnKFHt7Wk5VK2pIhZmReMN51Pc2LeBH8Q7EW8wVoKQC/mp++boPZ9M0En8WIWYKyhAQZfIGZtPciFmOONmTnMmBxFP3Pg8SE/cUyKWby9UtDI2b7os3V03nUGv9zEm2LOiXi/5BceaWoUdSSeSGLWgnkiq08vFsJesd0uhG4EfrcFa9JxgXHCxHzsj27qPKjEaGP98bkMG4eIV9+pEfOPWMwcM2tFgjwzxDxOoyE8880/W061rUo4BY979E03DXR4hIDjuRAgXga7WcyHYh85ROiBEATx9aIN9pgbpMkitnN1GF5+bJra3nHHLWQjFBEgcVmf+7aJNg9Vj7KFf7voc8P6ZI4NULdaBqLIT6qQwb7nXfTeyzM00J5aIQviFOHkqJdefWKU7vt8F/39ruP0m+8PUNfh9P8YaMLEnBDkh+4Do2ohR9r4T6hDMYUtcwFslH22wUidWK+pT+YC2GK9YhqtV/IQx8coI3SiIG1OumDSYxxyZwwjvW76v93DdO91HfSda9rpuQeH2OOn+lupYC4x61C8HJ+YvUo+q+ZCZX58psx1q6Xt399Xn1iBHOtFUckM90dBZr5cV5+mfi9stW7xhN05l+VspPeYi55+YJDuubKNvv+ZDvrDoyPCi6cKU4tZoH72eg3ol5tsPbyyeBaZ4o2VZfOD9v3T9F/f66e7LzlGD97UTW//bly0MZKJucUM76ZP8H7qA7Y+V1PQclTHucYrK2W53LedTKqtz/Xr9UnWr6gbZVn0Z/MKr2eWDr40Sbu/3kPfuOgY/fJbfTTYlZwwxOSeWXoyTVwakPs8XZT5XPcPlYc4PqOY2TRN/zTgcnpp769H6d9uDD3Zfy5kRMysT/zESWwQdS4eyNWkemhswLm6Xax5QJ36hIe6PTLsJMvzmf72eemZGXg5oQElV72eXhKRbLUe//5zq89ny3r1xyf98ryNmdOByT0zkvRyAQkr1fVKimQH7K+Jm/kJf5xrt43F9tflS1w/4BLbyraKbZFMTO+Z9QKYqyBSVh8X/J5ZWSSyeRwzJxvzx8zs5UQ/riYP8oT6hIfBcl89sNX6dNuIFGJ/X9KuV+vR5uo2YjvxQpTXww+1bJF4zO2ZfZ+76s2izDVxq2GegvVKfKx6ZmW5sswiWWRAzIykeDhtLreIPsefUT38J59izo3q8+fYRrHV3WRmkSRMHzPr9BN/rhLt8rnmjPDPioOWNp4s75wszB8zIyEW1eRwd9CMKEabI+nqUXLddjHkKBgdH3JsIR7qDnKJWrZIPOb3zBmL8MtWzJxCTN8A9HlPXy6dmzCMcjWptj8XRbm/Wp92vX9fo+Vq7l8vFoU4PpHw4Fxs788skoS5wwzxzN5MFNScUW2BPlcxWK/f37AeFf1yg/X6egLqxxLVM6s2nqRhkXBM7plln60+F6sUO9pkWI8mjyvxcYStDw/lYPFqhK2WLRKP+WNmfP66PF709cyhKj/6+mSuxMdWzJxKzB1mQBjwcCIe9edYITPDJARltEzdX1NfyG3DJP96fz3aXNSPjfAstwcys0gS5vfMAtWjKblyMXtoQotGv79xPZFE51+vr0dbv4iYrZg5hZjcM8PbqTm8nN9WXB42UrJIttgXSV9flPsb2Yb1+Y5PvcWAsq3YBTvLskXiMXkDUHox8flzWdVBhth+z4wnZYlF8jC/ZzZIYl2sD4N6fCnOhzgOo/qQ1GNUCgKZWSSJDImZGb0SYrX1zLW+SDbj98yqjSfLOycLk3tmknOEZX+uKCu20A4/qZ5PtdWk2r71uv199WED5U95kkm1w9WP/UMeH2w8xIZ4wj7YUSlbJJ7M8cyCwBuIGxF+vX7/YC8ZW/36/f31K/GxFTOnkgyImWWuejvYkIxYjo1iyYPri26/EDkewvbXp9pYL7ZALsq+zCJJmN8za8TgK8erCt3+QmhzQVef1kZmxcypxfQxM7yc4byHmJOMazkF1qP8j7kkfb3I+b+xoGHLF4JMqFwpWySezPDMQXkk72awXr+/vt4AYqhfX49aPye/Z1a2h22RPMwtZvZicGS+JOJSTlAM//kSCLD5KcCWRXV/fhIJtrJabiATngJsmftsfsKfPmnqVzZRjh9luZdFEjF9mKEUZK6SENvAu6okzDaImS2ShunDDJ8X1SSIBXqJJfGOQfUodXGu2zbahCejOkXCen7motzYl1kkCZOHGTIBtRyvDYzWq6i2fn04W59r1zP+mFm18WT552Rh8jBD9hBgpE16PDXHA8oReRR2wP66+qLZ38gOeXxs+7fBbnhS9lbL85nqpsT+preKycMM1YtxLjSQQTYnv2dWlsOe76w9s5g+fU+DtBKL6T2zfmQNtlSOsFEUeZS2vr5Y99faMIyOT7E54YFN5ebqXvON4nIbnfnJCrr18YX0yb9riPp3umPF9A1AgSoGVQ1xqkK/v8+Ok5D1iVzrmWHLbB7FzC2rC+nq2+vo1icX0kU3VIf9Te5EYH7PzEmNQwNsFkxMSeMxA+vTbRdTMqpP2vN0BBC/5LrlklL6wk+a6fMPNNPJF5XG/aOhsWL+mFmIQbECyvGg7p+o+oBRfZyU+Fj1zMqHqSzLThA6XPqVGrr9PxfRlbfWUfMq/w93pgpziVn3WaueDs5MmyuCiTHnJ1HkJ20uViIXC2PPjY5PyXkb3kDkoqxkynI/eQWZK3D85PP6c0voz/+1kW78aQvtvKqcCovTJ6mE/eftVxRS82obFRUn+sNR68u0HKXgmBn2cI//B2o2fiiflmzO43jS5CdJDZUL8uhDf1ElGnSf+EY9Ldlkl2vSS8J+CF7L+KCX+o97qa/NI/KRXvyav1wZBhu3D66+y/9D8Lu/3kdH9kwpKtDsX9Nip0KHTVqMbr2RPT3Jx9LGdUlbXV/TKuuKsL+R7Zzw0EBH8PHBdk25aWbGw68bK2T8jJzty29cQKddVa1sq2Fmelb8hnY/p4F2HK+X69FWnFgGT0xR+8Hofgg+h79rq04pph2Xl9GKHQ41cgqgb9pDv+gapRZ7Hl3SUCqXpo6kiFmP+iENdCBBAF5yjgX/W1s+i/lOjZjvYDHvVQSIrdX3L0jMUeCc4v+riplR6xNitsdWl4pPzIz2+ICL/5/bzWL2NQTRp6gI2lGWS9f+bSst21yibBwG/LA+xN3PjgHv4XAP14eqEkA0Yi6tttHWS8to+0fKDHsj8Lr3DE7RYyzi/+2foHxW+bOnLSSHLfVnmpSI2YipURa4RtyDnV7yumcDPfMdvXQYnlmHEHNxXoB49OjF5RSeeVJaWjE7qMjgi6HfXw/WO8fdPjHrwQ84ut1u6ZmlV8ZDI+qW1XZaf1Y5LVpXTEs3RhY28HCEgvcMXlt4bxa4cxz/I3bCiXnpZjvtuKyMVp9RzGfM4HdizO2lJ7vH6Jedo9Q25Q+bPtZcTjctDz7rpIK0idmI0T4vldX6v9G7b++l91jMOfxtx2GqeW5uDuUX5VIBe9SCQs4deeINx6kPr8Yohxftb58KqAc5vhhFxbaQ+4XLlTon2Q48PuQup4c8ITxzoK0sQ4jVvNIuhL1kQ6lIpZXRDfuOD+HMpwi8n/PhbnYMHrkyDHox20tzafPFZSKUqGkJ/b//8fAA/UeH8Zfgv05ppcai5PYnhyLlYu52umlBlC/2p7dBzPCmrB7+yMPlObmzHC7kscBZ3Fx/AYvdlo8vhrLeOemmvuPwooH71S5kMfOXQb88mnxqXBGz0fqZaTd5PCxc8fZKASMXtizjEVLkXqpqLKQl60s4lYnUtLSYXyf+R3i8bvbenUpYooYoOBPqUcXcsrqIduwqow3nlkTsXXlxYJK+/PYJaQVyfl0x/f2aemmlnpSL+XNvddP74y5aW1ZE68oLaV1ZIa0pLaIiW/CbqIjZ+DQeDTaOHuC984tswluO9E3LNX7qEDNzyBIPCDP62Nsb4ebGkJvF7L98KrRoA225zOBLgG6vxWvZa68vp6Wclqwrl1/EyEyOIKzjLx83yOG94cXz7S467ePF1LA0uuFlNx/Drlc7qFMTVmh5eHMTreHPM12kXMz7Rqfp2tc7peVnWXEBbam0B8Rbj3yth957lcUS7PgSltciZuYwIx6mWMyih8SgXo+LY2aP2pshBYlH1KKObOP/NLK3XrahgsVdwXkV1TY5eH1yeKR9hL57ZEBagWwsL6KfnNworfSQ8iYnvrk7q4Pf8CMTLnqMGxOBQB0M9JCkfIA9a8/RSRrqdtL4oEt04c1GEW8KItQfqp/Z2MbWsPk5yBYl5aGx8X86j4zR759sp7d+30tDvfGfxSIxPOOh+44OSSuYT7aUy1L6SEsD8ODYNF3zWrB3Bq+fvUSWiH52Zy/t+78JLuHD0x5m8m00KBF/56OByWFKfqGN8riMLVXgmftED0nw/mj8zTVmjmRX1BbS6Zc301lXtFJpVXJmoql882AfPdE9Jq1Amu359OSOFmmlj7T1ZvzVOz30Qj+EGsjTOxdSdYFy2j/w4iTtvqOHj5LFgsM0QV5QiJ6UPCFyvHUjvRyHG2zncaNHAQKMVaRyGepR1+nslVsq6Mwrm2njWXWiZyfZHOY2zsf3dvB/NuaetfV0bq2/SzVdpE3MxydnuDHRLi0/3+Y35jzNGzPjnKWOg9PUvt/JifN90zQ+FG0ckD68nlnyeBMXM6Pxt+NP6umsq5qpfmHy4mIj/uyNLnprxCmtQM6ocdB31yVnsn2spE3MADHY/ccC4zCcsh7c3EiV+aEbZUPdbr+4OXUddokBFzOB4/GyECOLVi4L4YkblznojCsX0NYL6+IeqZwL4Rp9dlsO/Wp7C9UVpqdfWU9axQwue6Wd2nVdPQ18Gr9lRQ2dbtBQNMI9M0tdh6apTXhuJ7Wx9x7pdRud/VOWq/GysUhlGQ8DkWNYf8PZVSziBlq6oQwvMS28Oeyk69/sklYwX11eQx9tTt/x6Um7mF8bmqLP/rFbWoEsLS6gsznkuGFxpVwSPaP9Hp+w2zjvZLG7XcpLZa2xbEKTiPW41S0m6fuEHNIz++2K+nw69bJaTnVRj/4lC0wa+hjHyejFMALjAw9ubpKWOUi7mMEd+3vpNz3j0grm+kWVcQlaC2LYbg5HIGxV4INdbl4zy+LLEYJSZKiKVbXjXA8xQ6gRPDHEvnxrCZ12RS2tPb0iJQ26SPChc5zcSe+MBg8yARufev5ja5NwNmbCFGLGpJWr93RQ7zTEFQw+3n9e30CnRRl2RMvEsIfa3lWELbw3NzSn1SmXyLS6itXGZVTiYSziopIc2npxJe28ooZqW9I3ambEPYf76ecd+j5/P3+6sIK+sKRKWubBFGIGGBn8U241e0IcDoa779/YmNThUujtxAfSe7+rCLyvjeP5uN4hIWHpmaWgOW9cXkin7qqizRdWiO49s/Fc3wTd9G6PtILBJCI0+vJNcAbRYxoxA8zEwoysUJTm5dIDmxppeUnqTm9TY14ZeyvhCcpT4/Cy0aAIOJcb++vPKaFTdlXQonWp7VaLhT8MTNKXQkwiUrl/0wLaXGGOK0v0mErMINRgikpVgY1+zIJe6EhfA6nnqEuIuv3ANB1720k97M2NwHTWHZeX0/aPlFNxReq71WIBs+Hw3mMyUShuXlFDVzeZp/dCj+nEPMUNNTQ+3hs3Fgi4bEEp3bGqVlrpxzXF3nv/NB1/x0lvPz9BrgkvXfT5Klp3dnQT7tMNnAeEHI5Pt1bQl5aaL07WYjoxg0GXR8zd0DcIEaZ9ZlElXb+wUpS1THAj8tD4NO/joSHeH4FACYclNYV5tIy9eH2Uc6jnG89zjHzzvt6QbRVwnpynbL4oORBTihm8P+Gi617vokkxJ5hP2SzM76xroE0VRcIGLu8svTQ4SS8PTtGrnPSDLyqItbdW2mk7p1OrHWm7EsJs/LZ3nL7GQg4H3rcfbVwgLXNjWjGDN4addMMfu8mRl0M/3LCAVpX6ezJeG56iJ7rG6Kkw/dNGbCgvpA8vKKMPN5Swdze7r0keEPJtLORwHz76kR/a3CSGrTMBU4sZPNM7IS5d1wr5Zx0jtJtT55Rxv3Q0fLy5nD7RUj4vvfS97w/SQ23D0jKmid8XjPChwZ0pmF7Men5yTJmclIh5RR+qL6G/WFxJrfb0Dh2nig4Ow25hb3xgzHhkTwVh2SNbmsSkr0zCfL32YdjdPkL3JUjI4Lccojx0fJhGZ6LtN85cfn1ijD6+tzOikCFghBaZJmSQMWJGAw+hhSfB5xFcPYG78GQraEDfsq+H/uZAn68xHQo09nazR05nH/5cyAgx40N4nEWH2xQkg1+xmF/nBmW2AS/80T0dot0RCVzD9wNuZBdziJGpZMSRY3TqGW59Jwt8STAnIVtAP/3fHuqnT7/eRV0RHEBBbg59a00d/eWy6qC++0wjI8T8EocYyQb/Q3ubqUwEA0f/8v4gXfJymzjbhBsIATUFNhEfX1CXGSOVkTC9mAfYy7zCnjnZtE3O0DshrnMzOxg8QlcbRPwg59OYkByBk0oL6WfbmmlFCidtJRvTixlxXx8LOhUcGAs9H8SsPN41RpeyiNF3PMqeORpwc0N0vYW7zjITMb2YT4SYsJ8MjrJ3zgRwnN9j8V740nG6+1Af9Uf5ZYc3fpS9cbru0plsTD9oggGScHfSSSQrSgrF5UBmBI06XFr23yfGws4oNAKjeF9eWkV/0lBq+slCc8H0njlSIyaRIPbU8mjnKL3CDcNI/bPJArEvBjtws8nz/3BcXPIfq5AxZI+7DV2S5UIGpvfMD7eN8Ck19NUniWRNWRE9vFm5+R/elO0vHBVfJohgcXGBuCJ5nbx76RJHQUK7svA9wkzB/dxGEGl0mg6zPRNFY86IDeVF9PVVtbQoQwdA4sH0YsasuNv3h5+mmCguZu/1zZOUSf9DMx4678XjomxEISt5NYsb3VvVBXkix+kcN0SpyM8V5XouOz2z4oLdcfbuY1ynk8WJy/fFMk6Id3H9Y6g7BsUK/v9fLqvKmu62WDC9mHFaxX3OUsEXl1TRdQsrRBne8VMhbu5oRjDPe1djGZ1fW2zKi01Tgelj5mXF+eK+zckG94JYy6dmlbczoM8ZFyxgKusTHBPjusiL60vmrZCB6cWMCfS4QiTZbK8soi2aq1iejmI+Q7pAPHwXh0O/3bmQ/np5NbXMkymskTC9mAFuTr44yQ0Z3AZMBdceJiqGTRRofF7XWiHuWfFvJzeK3gnMq7DwkzGT8zFci1GuZHAOC/lO9nTF8rfr8IZ8MOESgn5rZFqEHKmct4ELceF98dMKSGtZyJZwI5MxYh6Z8dI/HRkQgwaJBHMTMGNsW4RQZmTGQ3+Uwn5r1Cm6zqKZAxEN6PVAA04VL669s7QbOxkjZoCfj7j3g0ExUT8RVOXb6Mss5Esa4uvGwiw1dLkhn/DM0hSXcdWKugyDLWiQlbDHxzxheH54XYctJ8C2vG5iyCgxg3fZIz7MIcfv5jj/GL9u9anW8rT8xrNFcsg4MQNcmPmLLuWnbuMZaj6zxiFuM7Wjyrz3fbOInYwUswpuK/Vc36S44V+om2JrwTVuaOxdWF8i+mgtsouMFrPKPm6Qvc3hx8Exl/g9QdyeC1dwIx5dXJxPyzmkQI/AKeyJM+R+JhZxkBVitrAA1rnWImuwxGyRNVhitsgaLDFbZA2WmC2yBkvMFlmDJWaLrMESs0XWYInZImuwxGyRNVhitsgaLDFbZA2WmC2yBkvMFlmDJWaLrMESs0XWYInZIksg+n92dZuMnEYu+gAAAABJRU5ErkJggg==;" vertex="1" parent="1">
          <mxGeometry x="549" y="220" width="20" height="19.44" as="geometry" />
        </mxCell>
        <mxCell id="1UHYk_NCJkt_y42l1zSV-15" value="" style="shape=image;verticalLabelPosition=bottom;labelBackgroundColor=default;verticalAlign=top;aspect=fixed;imageAspect=0;image=data:image/png,iVBORw0KGgoAAAANSUhEUgAAALMAAACuCAYAAAB9XDy2AAAAAXNSR0IArs4c6QAAAARnQU1BAACxjwv8YQUAAAAJcEhZcwAADsMAAA7DAcdvqGQAACO6SURBVHhe7Z0HnCPVfcf/u9ombe97264Xrh9X4ejNQMCGo7hgY5IPjoN7SDBgwAGbxDFJ7JjEBbDzAYIvNtgGEsfEgIHEmHJHMeUad3B3W29739VqJW3+vzdvpNFoVFdlpJ2v9um9/5S3I+mn//xfmVHOLEMWFllArswtLDIeS8wWWYMlZouswRKzRdZgidkia7DEbJE1WGK2yBosMVtkDZaYLbIGS8wWWYMlZouswRKzRdZgidkia7DEbJE1WGK2yBosMVtkDZaYLbIGS8wWWYMlZouswboGMA5GZjx0eNxFA5wPu7w0zPkQypxGZrw06FLK/ZyD4rxcKsrNEanQppTtnDfZ82ihI5+WOAqomctLigvE9smkc2qG9g456eD4NHU73TTh8ZItJ4cq823iWNaXFdHOarvcOrOwxBwBfOCH+IM/OOaiA2PTotw3rYg0GTTZ82lFSQHtqLTT9io7tbCdCF4cmKSfd47SS5xHooS/fJctKKVPtVZQTYFNLjU/lph1HJlw0VMnxmk/Cxfea5Q9bTqpL8yj02sctLXCTjtY3BBaLOAM8Q+HB+h/esblkugp5DPIV5ZV09VNZXKJubHEzIy7vfQb/rCf6BoTntesIBw4vdpBlzeW0qlVDmKthWXf6DTdur+HQwu3XBIfu/j/3bayVlrmZd6KGS9679AUPdk9Rs/1TZDLm1lvQx177A9zKAChwXvreZeF/IW3ummMv6iJ4KL6Erp7dZ20zMm8E3PvtFsI+AlOJzgezgZ2sre+d32DtIj6+TVe90aXiPcTyTUt5XQjhx1mZd6IGbHjDz4Yol92jcoliaGaG0iLHAVUZMshO3os0FvBZcSb6LEAE+wdnV4vTXlmyclpistDLg+9N+4S6+fKpQ2ldOdJ/jDgpnd7xNkmGXx7TT2dV1csLXMxL8T8SPsIPXBsSMTGc6GxKI9WlRbSypICOolzpKo5tvaPTs7QMW50QtgfcP42hwc4e8TCz7c10zLZrfds7wTdvK9HlJNBqz2fHt/RIi1zkdVifp690/feH6T2qRm5JDYq8m2iB+EUTjiVoy82FXTw8e7heB7ptSGn6MMOxfZKO/1g4wJpEf0ZhxdvjTillRzuWFlDlzWar4cjK8WM7rV73hug14en5JLoWVNWKHoMTqly0Foum4FD7LWf6hmjX3ePBwn7ayysK6SwsN0n9naIcjLZXFFE929qlJZ5yCoxIx797vsD9IvO2OJixLiXcNx5VVOZ73RtVtBfjAYsvDZ4eHOT+AKCh9qG6V4+E6WCF05fRKUx9nknm6wRM7zxV7nhc5xj0GiBcCHgixtKyCEba5kChqUh6s8tqZJLiG7hWPkZjplTwY84tNnKIY6ZyAoxwxN/671+aUUGnuxLLIItJvsw5sq1r3XSvrHUDPp8fVUtfWRBqbTMQUbPmpv0eOmv3umJWsiLHPn0j2vrxak524QMxvj9SBWYoGQ2MlbM6Mr66J4OeqE/8mm1ttBGt6+spce2tdDZtebsI00IKTzH5pjwfJ6RYv5p+whd+3ondUUxwrWLW/qPb28V8xkizWXIdCpTOMOt3ISz6TJKzHAGdx/qo+8cGaCZCHMp4I3v37SAbltZQ3ZblqtY0sphVKpI1NTURJIxYoZ07zzQR493jSkLwoButl9tb6HNFdkXF4cjVf3i+XyKW1Nqvi7MjBCzKuRfnwgvZIzQYcLNXSfVZlxXWyLYWeWQpeRyRjWmn5rvbGf6TxxCvm1fb0QhLy8poEe3NYth5/nKgqI8OicFDdxLTNYlp2JqMSMshpB/2xv+KgnMnXjw5KY5T/rJBj7ZWiFLyQEDJfDMZsS0YoaQv7qvJ6KQER/fu36BGJK2INrAcfM1zeXSSjxfWFIpS+bDlGL2zM4KIWPWWygg3S8urRLxcbZ3ucXKjcuraVsSBoVuXlHDjcwiaZkPU4oZ0zbDCRl8ld/Y65J8So2Hjv1uOrw3uVMwowGT6BPZu3HD4irTX9hqurkZLw1O0hffOiEtY65lEX+ZvXI6cU3N0mCnl4a6vTTMaeiEl0b7vDQrR3m7jw7TylMLaeP5JdS0Mj3eDMP9t+/vo/+NYpQ0HDctr6GPNZv/Cm1TiRk3T9n1anvYizBxyQ68Tsrgd2d0QArWJ9xZmhoNPzeh/cAIDfZM8u5eqmnNpw3nldKmC8qotiX1/bMPtg3TDz8YIneMH/V6TMhaWk2bKswbWmgxlZivf7OL3hwOfYrGTVF+sMF/VUWi8cwQC9YT4G2HOWF5rLQfGKYBiFm8veyxxcNLjcsLadP55ZwqqKI+daNouMj10c5ReqpnPOI0AFy9giu/L6wvkUsUOnm/V/jMqV4MYDZMI+b7jg7R/ceGpBXM0uICemhzU8KGpidHZoVQfcLlND7IokvQu6H1zELIIv5QBI1nCHzhWgd76wradG4llVQG3y4gWWDu96ExF3U7ZzgUmRX346jIzxXX960rLxSXi+n5w8Ak3bKvV1yY+8iWJlpZYo6rcLSYQszwxvDKenCbKsw3wGDAtS0VcfUjQ0MjvYpYleQR4p2exMvGFyM5eftBiHlCema/iPWihp1jm6VlJ5fQyedX0cZzqsheYp7+clxk+yN2NL/TNMhxQe/urc3SMg9pFzNuAXD1ng4akDcZBLjG7K6T6oSIY2FmWmmUqZ4WCUL2ompjzSUth5iHwnhmvy2XiY/BS7kceZy0vZxOvqCa1p9eSQX29Agbjce7D/aH7Oe/YXElXb/IXH3OaRfzNw/2iRuyqOAqEEyej8SYbJQNQrRdisedHE7rSwmg/dAwDfVO+UQaKFpZxiOkyL2UX5RDa0+rpC0X1NKaU6soj0OBVPLX74bv639sW3NK7lwaLWkVM05hV7FX1vKv3MDD8LSKh9sqIrbtUhpmQrhsu9kLm5mOQxxmsJh9Qg4j2kBbLtN9CYqKc2nj2TW05fx6WrWtknJTMFI06vbSla+2B5w1tawuLaR/5/jZLKRVzF95+wT9XneL1Wd2LvTFxu373PTibicLmg8RRxnmtG62vOO9UfbMam+GFCgeUYs6tF1alU8nn1tH2y5ooKUbKimZE9heHpwS96wLBfr70e9vBtI2AvgGN/r0QgbaRt7RN9zknmExzObwx8hwLvDZ4i/l63Nycjm2zSEbJ6P1vu3wQFEuFsWQNraGzc9BtigpDy6PDc3QC4+10z2f2UM3X/o8Pfa9g3ScY/RkgLPklWFG/n7IjcN4b7KTaNLmma95rZMO6q4kRhfRnrMWS4vouZ9MUsdBt/gQ4ZXwgbJSUmZDOKxbsuWxePk7lsOndhu3SbEc69H/7Bw3Pr7Ow9wA7JtbzByrXd9azN66kXZc3EwNrYF9xHMBd0hFOIg7LRlxXm0xfXttCgeyQpAWz4z7oemFbAyLw8DrJdqGLHJZtfC0BUW5VMDxqaMsn4or8shemkcFjlzKK1DW45iiql9Imh9iF2Wd3xamyIJtfhY2tg5li5Ly0Ng9bRP0nz8+RLfuepb+5prn6NWnE3N3owL+Et+0PPTdP5/rnxADKukm5Z4ZUzs/8kqb4SiU3jP/7sfsmQ8k902CUCHgePBwCDQ1Ztw46n5/jD1zcmLmQHtWnC0aFjuoZUUZta5EKqeFnOwliR1h/MTezpA3Y0cocuuKGmmlh5SL+ecdo3TP4X4xbRMXRWIkCZ3wK+XdNbUx81zELBwWV5VrY4+KUUN+ldNTwcKzl9qkx42dsGI+MkbD/RxmRBSlXCY+BrkuyOaH3L7AnkPNK0pEauEE8TYuLUlJt124SWC4LvBpbryXpfGWXSkXM0KMukIbLWcRRxqafvYBFvN+jtOwGY7SIEcxl+vJ4WTLy6Fcfi9zOLfxm6t9YYrw+Iuh2x9hRLxids94yTnKYtbUp+Zd74/SSL8zhEhlGY8wnre0Oo9FWyxSy0rkJVTb7FCiihhwu+Rgkjp83+OlwQ5OPRO0bGsebfpQCdUtiq6/ONxdRv98USV9dnH6BlLS2jUXCZ+YdWrJ5y+Djd/7XCHe6D5ZIWYIT1MPcnvZHDwzi0R8QXTHh7z7A8Uz+4QcRrTIq5sLqHmlnZqWO1i0nFYVU2ll7GHCxNCsIlghXKVvHsuMGDwxJUYqwYJlBbTxglIxZbW8LvTIK3646J+PDBreYbU830ZPndoqbrSeDtIuZnXCj+o1dn7MP4HlmfsnxGR3PQ4hwNhOZ243C28kuC57eR7l8ZciHtwub8gw4wTEPKD2ZgSLON9OtOPDVbTuzHIWroMK7bG9HgzRj7CHFQNJEC9yfg9nnNF/nFoxq8DrL1pfJIS97pwSfq+Njwu/woWG37O94+J3BdXppbgaJV2T+FMmZnyGI338pssRPPUDUCb8KKAhc/Vd/quLM13MIwMcZhh44gJHDn3u+0uEJ44GFwtUP+dEeyFAvBiJWQvCtuXb7OytS2n1GY6QDWX8IgFuk4afnmibnKFHt7Wk5VK2pIhZmReMN51Pc2LeBH8Q7EW8wVoKQC/mp++boPZ9M0En8WIWYKyhAQZfIGZtPciFmOONmTnMmBxFP3Pg8SE/cUyKWby9UtDI2b7os3V03nUGv9zEm2LOiXi/5BceaWoUdSSeSGLWgnkiq08vFsJesd0uhG4EfrcFa9JxgXHCxHzsj27qPKjEaGP98bkMG4eIV9+pEfOPWMwcM2tFgjwzxDxOoyE8880/W061rUo4BY979E03DXR4hIDjuRAgXga7WcyHYh85ROiBEATx9aIN9pgbpMkitnN1GF5+bJra3nHHLWQjFBEgcVmf+7aJNg9Vj7KFf7voc8P6ZI4NULdaBqLIT6qQwb7nXfTeyzM00J5aIQviFOHkqJdefWKU7vt8F/39ruP0m+8PUNfh9P8YaMLEnBDkh+4Do2ohR9r4T6hDMYUtcwFslH22wUidWK+pT+YC2GK9YhqtV/IQx8coI3SiIG1OumDSYxxyZwwjvW76v93DdO91HfSda9rpuQeH2OOn+lupYC4x61C8HJ+YvUo+q+ZCZX58psx1q6Xt399Xn1iBHOtFUckM90dBZr5cV5+mfi9stW7xhN05l+VspPeYi55+YJDuubKNvv+ZDvrDoyPCi6cKU4tZoH72eg3ol5tsPbyyeBaZ4o2VZfOD9v3T9F/f66e7LzlGD97UTW//bly0MZKJucUM76ZP8H7qA7Y+V1PQclTHucYrK2W53LedTKqtz/Xr9UnWr6gbZVn0Z/MKr2eWDr40Sbu/3kPfuOgY/fJbfTTYlZwwxOSeWXoyTVwakPs8XZT5XPcPlYc4PqOY2TRN/zTgcnpp769H6d9uDD3Zfy5kRMysT/zESWwQdS4eyNWkemhswLm6Xax5QJ36hIe6PTLsJMvzmf72eemZGXg5oQElV72eXhKRbLUe//5zq89ny3r1xyf98ryNmdOByT0zkvRyAQkr1fVKimQH7K+Jm/kJf5xrt43F9tflS1w/4BLbyraKbZFMTO+Z9QKYqyBSVh8X/J5ZWSSyeRwzJxvzx8zs5UQ/riYP8oT6hIfBcl89sNX6dNuIFGJ/X9KuV+vR5uo2YjvxQpTXww+1bJF4zO2ZfZ+76s2izDVxq2GegvVKfKx6ZmW5sswiWWRAzIykeDhtLreIPsefUT38J59izo3q8+fYRrHV3WRmkSRMHzPr9BN/rhLt8rnmjPDPioOWNp4s75wszB8zIyEW1eRwd9CMKEabI+nqUXLddjHkKBgdH3JsIR7qDnKJWrZIPOb3zBmL8MtWzJxCTN8A9HlPXy6dmzCMcjWptj8XRbm/Wp92vX9fo+Vq7l8vFoU4PpHw4Fxs788skoS5wwzxzN5MFNScUW2BPlcxWK/f37AeFf1yg/X6egLqxxLVM6s2nqRhkXBM7plln60+F6sUO9pkWI8mjyvxcYStDw/lYPFqhK2WLRKP+WNmfP66PF709cyhKj/6+mSuxMdWzJxKzB1mQBjwcCIe9edYITPDJARltEzdX1NfyG3DJP96fz3aXNSPjfAstwcys0gS5vfMAtWjKblyMXtoQotGv79xPZFE51+vr0dbv4iYrZg5hZjcM8PbqTm8nN9WXB42UrJIttgXSV9flPsb2Yb1+Y5PvcWAsq3YBTvLskXiMXkDUHox8flzWdVBhth+z4wnZYlF8jC/ZzZIYl2sD4N6fCnOhzgOo/qQ1GNUCgKZWSSJDImZGb0SYrX1zLW+SDbj98yqjSfLOycLk3tmknOEZX+uKCu20A4/qZ5PtdWk2r71uv199WED5U95kkm1w9WP/UMeH2w8xIZ4wj7YUSlbJJ7M8cyCwBuIGxF+vX7/YC8ZW/36/f31K/GxFTOnkgyImWWuejvYkIxYjo1iyYPri26/EDkewvbXp9pYL7ZALsq+zCJJmN8za8TgK8erCt3+QmhzQVef1kZmxcypxfQxM7yc4byHmJOMazkF1qP8j7kkfb3I+b+xoGHLF4JMqFwpWySezPDMQXkk72awXr+/vt4AYqhfX49aPye/Z1a2h22RPMwtZvZicGS+JOJSTlAM//kSCLD5KcCWRXV/fhIJtrJabiATngJsmftsfsKfPmnqVzZRjh9luZdFEjF9mKEUZK6SENvAu6okzDaImS2ShunDDJ8X1SSIBXqJJfGOQfUodXGu2zbahCejOkXCen7motzYl1kkCZOHGTIBtRyvDYzWq6i2fn04W59r1zP+mFm18WT552Rh8jBD9hBgpE16PDXHA8oReRR2wP66+qLZ38gOeXxs+7fBbnhS9lbL85nqpsT+preKycMM1YtxLjSQQTYnv2dWlsOe76w9s5g+fU+DtBKL6T2zfmQNtlSOsFEUeZS2vr5Y99faMIyOT7E54YFN5ebqXvON4nIbnfnJCrr18YX0yb9riPp3umPF9A1AgSoGVQ1xqkK/v8+Ok5D1iVzrmWHLbB7FzC2rC+nq2+vo1icX0kU3VIf9Te5EYH7PzEmNQwNsFkxMSeMxA+vTbRdTMqpP2vN0BBC/5LrlklL6wk+a6fMPNNPJF5XG/aOhsWL+mFmIQbECyvGg7p+o+oBRfZyU+Fj1zMqHqSzLThA6XPqVGrr9PxfRlbfWUfMq/w93pgpziVn3WaueDs5MmyuCiTHnJ1HkJ20uViIXC2PPjY5PyXkb3kDkoqxkynI/eQWZK3D85PP6c0voz/+1kW78aQvtvKqcCovTJ6mE/eftVxRS82obFRUn+sNR68u0HKXgmBn2cI//B2o2fiiflmzO43jS5CdJDZUL8uhDf1ElGnSf+EY9Ldlkl2vSS8J+CF7L+KCX+o97qa/NI/KRXvyav1wZBhu3D66+y/9D8Lu/3kdH9kwpKtDsX9Nip0KHTVqMbr2RPT3Jx9LGdUlbXV/TKuuKsL+R7Zzw0EBH8PHBdk25aWbGw68bK2T8jJzty29cQKddVa1sq2Fmelb8hnY/p4F2HK+X69FWnFgGT0xR+8Hofgg+h79rq04pph2Xl9GKHQ41cgqgb9pDv+gapRZ7Hl3SUCqXpo6kiFmP+iENdCBBAF5yjgX/W1s+i/lOjZjvYDHvVQSIrdX3L0jMUeCc4v+riplR6xNitsdWl4pPzIz2+ICL/5/bzWL2NQTRp6gI2lGWS9f+bSst21yibBwG/LA+xN3PjgHv4XAP14eqEkA0Yi6tttHWS8to+0fKDHsj8Lr3DE7RYyzi/+2foHxW+bOnLSSHLfVnmpSI2YipURa4RtyDnV7yumcDPfMdvXQYnlmHEHNxXoB49OjF5RSeeVJaWjE7qMjgi6HfXw/WO8fdPjHrwQ84ut1u6ZmlV8ZDI+qW1XZaf1Y5LVpXTEs3RhY28HCEgvcMXlt4bxa4cxz/I3bCiXnpZjvtuKyMVp9RzGfM4HdizO2lJ7vH6Jedo9Q25Q+bPtZcTjctDz7rpIK0idmI0T4vldX6v9G7b++l91jMOfxtx2GqeW5uDuUX5VIBe9SCQs4deeINx6kPr8Yohxftb58KqAc5vhhFxbaQ+4XLlTon2Q48PuQup4c8ITxzoK0sQ4jVvNIuhL1kQ6lIpZXRDfuOD+HMpwi8n/PhbnYMHrkyDHox20tzafPFZSKUqGkJ/b//8fAA/UeH8Zfgv05ppcai5PYnhyLlYu52umlBlC/2p7dBzPCmrB7+yMPlObmzHC7kscBZ3Fx/AYvdlo8vhrLeOemmvuPwooH71S5kMfOXQb88mnxqXBGz0fqZaTd5PCxc8fZKASMXtizjEVLkXqpqLKQl60s4lYnUtLSYXyf+R3i8bvbenUpYooYoOBPqUcXcsrqIduwqow3nlkTsXXlxYJK+/PYJaQVyfl0x/f2aemmlnpSL+XNvddP74y5aW1ZE68oLaV1ZIa0pLaIiW/CbqIjZ+DQeDTaOHuC984tswluO9E3LNX7qEDNzyBIPCDP62Nsb4ebGkJvF7L98KrRoA225zOBLgG6vxWvZa68vp6Wclqwrl1/EyEyOIKzjLx83yOG94cXz7S467ePF1LA0uuFlNx/Drlc7qFMTVmh5eHMTreHPM12kXMz7Rqfp2tc7peVnWXEBbam0B8Rbj3yth957lcUS7PgSltciZuYwIx6mWMyih8SgXo+LY2aP2pshBYlH1KKObOP/NLK3XrahgsVdwXkV1TY5eH1yeKR9hL57ZEBagWwsL6KfnNworfSQ8iYnvrk7q4Pf8CMTLnqMGxOBQB0M9JCkfIA9a8/RSRrqdtL4oEt04c1GEW8KItQfqp/Z2MbWsPk5yBYl5aGx8X86j4zR759sp7d+30tDvfGfxSIxPOOh+44OSSuYT7aUy1L6SEsD8ODYNF3zWrB3Bq+fvUSWiH52Zy/t+78JLuHD0x5m8m00KBF/56OByWFKfqGN8riMLVXgmftED0nw/mj8zTVmjmRX1BbS6Zc301lXtFJpVXJmoql882AfPdE9Jq1Amu359OSOFmmlj7T1ZvzVOz30Qj+EGsjTOxdSdYFy2j/w4iTtvqOHj5LFgsM0QV5QiJ6UPCFyvHUjvRyHG2zncaNHAQKMVaRyGepR1+nslVsq6Mwrm2njWXWiZyfZHOY2zsf3dvB/NuaetfV0bq2/SzVdpE3MxydnuDHRLi0/3+Y35jzNGzPjnKWOg9PUvt/JifN90zQ+FG0ckD68nlnyeBMXM6Pxt+NP6umsq5qpfmHy4mIj/uyNLnprxCmtQM6ocdB31yVnsn2spE3MADHY/ccC4zCcsh7c3EiV+aEbZUPdbr+4OXUddokBFzOB4/GyECOLVi4L4YkblznojCsX0NYL6+IeqZwL4Rp9dlsO/Wp7C9UVpqdfWU9axQwue6Wd2nVdPQ18Gr9lRQ2dbtBQNMI9M0tdh6apTXhuJ7Wx9x7pdRud/VOWq/GysUhlGQ8DkWNYf8PZVSziBlq6oQwvMS28Oeyk69/sklYwX11eQx9tTt/x6Um7mF8bmqLP/rFbWoEsLS6gsznkuGFxpVwSPaP9Hp+w2zjvZLG7XcpLZa2xbEKTiPW41S0m6fuEHNIz++2K+nw69bJaTnVRj/4lC0wa+hjHyejFMALjAw9ubpKWOUi7mMEd+3vpNz3j0grm+kWVcQlaC2LYbg5HIGxV4INdbl4zy+LLEYJSZKiKVbXjXA8xQ6gRPDHEvnxrCZ12RS2tPb0iJQ26SPChc5zcSe+MBg8yARufev5ja5NwNmbCFGLGpJWr93RQ7zTEFQw+3n9e30CnRRl2RMvEsIfa3lWELbw3NzSn1SmXyLS6itXGZVTiYSziopIc2npxJe28ooZqW9I3ambEPYf76ecd+j5/P3+6sIK+sKRKWubBFGIGGBn8U241e0IcDoa779/YmNThUujtxAfSe7+rCLyvjeP5uN4hIWHpmaWgOW9cXkin7qqizRdWiO49s/Fc3wTd9G6PtILBJCI0+vJNcAbRYxoxA8zEwoysUJTm5dIDmxppeUnqTm9TY14ZeyvhCcpT4/Cy0aAIOJcb++vPKaFTdlXQonWp7VaLhT8MTNKXQkwiUrl/0wLaXGGOK0v0mErMINRgikpVgY1+zIJe6EhfA6nnqEuIuv3ANB1720k97M2NwHTWHZeX0/aPlFNxReq71WIBs+Hw3mMyUShuXlFDVzeZp/dCj+nEPMUNNTQ+3hs3Fgi4bEEp3bGqVlrpxzXF3nv/NB1/x0lvPz9BrgkvXfT5Klp3dnQT7tMNnAeEHI5Pt1bQl5aaL07WYjoxg0GXR8zd0DcIEaZ9ZlElXb+wUpS1THAj8tD4NO/joSHeH4FACYclNYV5tIy9eH2Uc6jnG89zjHzzvt6QbRVwnpynbL4oORBTihm8P+Gi617vokkxJ5hP2SzM76xroE0VRcIGLu8svTQ4SS8PTtGrnPSDLyqItbdW2mk7p1OrHWm7EsJs/LZ3nL7GQg4H3rcfbVwgLXNjWjGDN4addMMfu8mRl0M/3LCAVpX6ezJeG56iJ7rG6Kkw/dNGbCgvpA8vKKMPN5Swdze7r0keEPJtLORwHz76kR/a3CSGrTMBU4sZPNM7IS5d1wr5Zx0jtJtT55Rxv3Q0fLy5nD7RUj4vvfS97w/SQ23D0jKmid8XjPChwZ0pmF7Men5yTJmclIh5RR+qL6G/WFxJrfb0Dh2nig4Ow25hb3xgzHhkTwVh2SNbmsSkr0zCfL32YdjdPkL3JUjI4Lccojx0fJhGZ6LtN85cfn1ijD6+tzOikCFghBaZJmSQMWJGAw+hhSfB5xFcPYG78GQraEDfsq+H/uZAn68xHQo09nazR05nH/5cyAgx40N4nEWH2xQkg1+xmF/nBmW2AS/80T0dot0RCVzD9wNuZBdziJGpZMSRY3TqGW59Jwt8STAnIVtAP/3fHuqnT7/eRV0RHEBBbg59a00d/eWy6qC++0wjI8T8EocYyQb/Q3ubqUwEA0f/8v4gXfJymzjbhBsIATUFNhEfX1CXGSOVkTC9mAfYy7zCnjnZtE3O0DshrnMzOxg8QlcbRPwg59OYkByBk0oL6WfbmmlFCidtJRvTixlxXx8LOhUcGAs9H8SsPN41RpeyiNF3PMqeORpwc0N0vYW7zjITMb2YT4SYsJ8MjrJ3zgRwnN9j8V740nG6+1Af9Uf5ZYc3fpS9cbru0plsTD9oggGScHfSSSQrSgrF5UBmBI06XFr23yfGws4oNAKjeF9eWkV/0lBq+slCc8H0njlSIyaRIPbU8mjnKL3CDcNI/bPJArEvBjtws8nz/3BcXPIfq5AxZI+7DV2S5UIGpvfMD7eN8Ck19NUniWRNWRE9vFm5+R/elO0vHBVfJohgcXGBuCJ5nbx76RJHQUK7svA9wkzB/dxGEGl0mg6zPRNFY86IDeVF9PVVtbQoQwdA4sH0YsasuNv3h5+mmCguZu/1zZOUSf9DMx4678XjomxEISt5NYsb3VvVBXkix+kcN0SpyM8V5XouOz2z4oLdcfbuY1ynk8WJy/fFMk6Id3H9Y6g7BsUK/v9fLqvKmu62WDC9mHFaxX3OUsEXl1TRdQsrRBne8VMhbu5oRjDPe1djGZ1fW2zKi01Tgelj5mXF+eK+zckG94JYy6dmlbczoM8ZFyxgKusTHBPjusiL60vmrZCB6cWMCfS4QiTZbK8soi2aq1iejmI+Q7pAPHwXh0O/3bmQ/np5NbXMkymskTC9mAFuTr44yQ0Z3AZMBdceJiqGTRRofF7XWiHuWfFvJzeK3gnMq7DwkzGT8zFci1GuZHAOC/lO9nTF8rfr8IZ8MOESgn5rZFqEHKmct4ELceF98dMKSGtZyJZwI5MxYh6Z8dI/HRkQgwaJBHMTMGNsW4RQZmTGQ3+Uwn5r1Cm6zqKZAxEN6PVAA04VL669s7QbOxkjZoCfj7j3g0ExUT8RVOXb6Mss5Esa4uvGwiw1dLkhn/DM0hSXcdWKugyDLWiQlbDHxzxheH54XYctJ8C2vG5iyCgxg3fZIz7MIcfv5jj/GL9u9anW8rT8xrNFcsg4MQNcmPmLLuWnbuMZaj6zxiFuM7Wjyrz3fbOInYwUswpuK/Vc36S44V+om2JrwTVuaOxdWF8i+mgtsouMFrPKPm6Qvc3hx8Exl/g9QdyeC1dwIx5dXJxPyzmkQI/AKeyJM+R+JhZxkBVitrAA1rnWImuwxGyRNVhitsgaLDFbZA2WmC2yBkvMFlmDJWaLrMESs0XWYInZImuwxGyRNVhitsgaLDFbZA2WmC2yBkvMFlmDJWaLrMESs0XWYInZIksg+n92dZuMnEYu+gAAAABJRU5ErkJggg==;" vertex="1" parent="1">
          <mxGeometry x="549" y="298.56" width="20" height="19.44" as="geometry" />
        </mxCell>
        <mxCell id="1UHYk_NCJkt_y42l1zSV-16" value="" style="shape=image;verticalLabelPosition=bottom;labelBackgroundColor=default;verticalAlign=top;aspect=fixed;imageAspect=0;image=data:image/png,iVBORw0KGgoAAAANSUhEUgAAALMAAACuCAYAAAB9XDy2AAAAAXNSR0IArs4c6QAAAARnQU1BAACxjwv8YQUAAAAJcEhZcwAADsMAAA7DAcdvqGQAACO6SURBVHhe7Z0HnCPVfcf/u9ombe97264Xrh9X4ejNQMCGo7hgY5IPjoN7SDBgwAGbxDFJ7JjEBbDzAYIvNtgGEsfEgIHEmHJHMeUad3B3W29739VqJW3+vzdvpNFoVFdlpJ2v9um9/5S3I+mn//xfmVHOLEMWFllArswtLDIeS8wWWYMlZouswRKzRdZgidkia7DEbJE1WGK2yBosMVtkDZaYLbIGS8wWWYMlZouswRKzRdZgidkia7DEbJE1WGK2yBosMVtkDZaYLbIGS8wWWYMlZouswboGMA5GZjx0eNxFA5wPu7w0zPkQypxGZrw06FLK/ZyD4rxcKsrNEanQppTtnDfZ82ihI5+WOAqomctLigvE9smkc2qG9g456eD4NHU73TTh8ZItJ4cq823iWNaXFdHOarvcOrOwxBwBfOCH+IM/OOaiA2PTotw3rYg0GTTZ82lFSQHtqLTT9io7tbCdCF4cmKSfd47SS5xHooS/fJctKKVPtVZQTYFNLjU/lph1HJlw0VMnxmk/Cxfea5Q9bTqpL8yj02sctLXCTjtY3BBaLOAM8Q+HB+h/esblkugp5DPIV5ZV09VNZXKJubHEzIy7vfQb/rCf6BoTntesIBw4vdpBlzeW0qlVDmKthWXf6DTdur+HQwu3XBIfu/j/3bayVlrmZd6KGS9679AUPdk9Rs/1TZDLm1lvQx177A9zKAChwXvreZeF/IW3ummMv6iJ4KL6Erp7dZ20zMm8E3PvtFsI+AlOJzgezgZ2sre+d32DtIj6+TVe90aXiPcTyTUt5XQjhx1mZd6IGbHjDz4Yol92jcoliaGaG0iLHAVUZMshO3os0FvBZcSb6LEAE+wdnV4vTXlmyclpistDLg+9N+4S6+fKpQ2ldOdJ/jDgpnd7xNkmGXx7TT2dV1csLXMxL8T8SPsIPXBsSMTGc6GxKI9WlRbSypICOolzpKo5tvaPTs7QMW50QtgfcP42hwc4e8TCz7c10zLZrfds7wTdvK9HlJNBqz2fHt/RIi1zkdVifp690/feH6T2qRm5JDYq8m2iB+EUTjiVoy82FXTw8e7heB7ptSGn6MMOxfZKO/1g4wJpEf0ZhxdvjTillRzuWFlDlzWar4cjK8WM7rV73hug14en5JLoWVNWKHoMTqly0Foum4FD7LWf6hmjX3ePBwn7ayysK6SwsN0n9naIcjLZXFFE929qlJZ5yCoxIx797vsD9IvO2OJixLiXcNx5VVOZ73RtVtBfjAYsvDZ4eHOT+AKCh9qG6V4+E6WCF05fRKUx9nknm6wRM7zxV7nhc5xj0GiBcCHgixtKyCEba5kChqUh6s8tqZJLiG7hWPkZjplTwY84tNnKIY6ZyAoxwxN/671+aUUGnuxLLIItJvsw5sq1r3XSvrHUDPp8fVUtfWRBqbTMQUbPmpv0eOmv3umJWsiLHPn0j2vrxak524QMxvj9SBWYoGQ2MlbM6Mr66J4OeqE/8mm1ttBGt6+spce2tdDZtebsI00IKTzH5pjwfJ6RYv5p+whd+3ondUUxwrWLW/qPb28V8xkizWXIdCpTOMOt3ISz6TJKzHAGdx/qo+8cGaCZCHMp4I3v37SAbltZQ3ZblqtY0sphVKpI1NTURJIxYoZ07zzQR493jSkLwoButl9tb6HNFdkXF4cjVf3i+XyKW1Nqvi7MjBCzKuRfnwgvZIzQYcLNXSfVZlxXWyLYWeWQpeRyRjWmn5rvbGf6TxxCvm1fb0QhLy8poEe3NYth5/nKgqI8OicFDdxLTNYlp2JqMSMshpB/2xv+KgnMnXjw5KY5T/rJBj7ZWiFLyQEDJfDMZsS0YoaQv7qvJ6KQER/fu36BGJK2INrAcfM1zeXSSjxfWFIpS+bDlGL2zM4KIWPWWygg3S8urRLxcbZ3ucXKjcuraVsSBoVuXlHDjcwiaZkPU4oZ0zbDCRl8ld/Y65J8So2Hjv1uOrw3uVMwowGT6BPZu3HD4irTX9hqurkZLw1O0hffOiEtY65lEX+ZvXI6cU3N0mCnl4a6vTTMaeiEl0b7vDQrR3m7jw7TylMLaeP5JdS0Mj3eDMP9t+/vo/+NYpQ0HDctr6GPNZv/Cm1TiRk3T9n1anvYizBxyQ68Tsrgd2d0QArWJ9xZmhoNPzeh/cAIDfZM8u5eqmnNpw3nldKmC8qotiX1/bMPtg3TDz8YIneMH/V6TMhaWk2bKswbWmgxlZivf7OL3hwOfYrGTVF+sMF/VUWi8cwQC9YT4G2HOWF5rLQfGKYBiFm8veyxxcNLjcsLadP55ZwqqKI+daNouMj10c5ReqpnPOI0AFy9giu/L6wvkUsUOnm/V/jMqV4MYDZMI+b7jg7R/ceGpBXM0uICemhzU8KGpidHZoVQfcLlND7IokvQu6H1zELIIv5QBI1nCHzhWgd76wradG4llVQG3y4gWWDu96ExF3U7ZzgUmRX346jIzxXX960rLxSXi+n5w8Ak3bKvV1yY+8iWJlpZYo6rcLSYQszwxvDKenCbKsw3wGDAtS0VcfUjQ0MjvYpYleQR4p2exMvGFyM5eftBiHlCema/iPWihp1jm6VlJ5fQyedX0cZzqsheYp7+clxk+yN2NL/TNMhxQe/urc3SMg9pFzNuAXD1ng4akDcZBLjG7K6T6oSIY2FmWmmUqZ4WCUL2ompjzSUth5iHwnhmvy2XiY/BS7kceZy0vZxOvqCa1p9eSQX29Agbjce7D/aH7Oe/YXElXb/IXH3OaRfzNw/2iRuyqOAqEEyej8SYbJQNQrRdisedHE7rSwmg/dAwDfVO+UQaKFpZxiOkyL2UX5RDa0+rpC0X1NKaU6soj0OBVPLX74bv639sW3NK7lwaLWkVM05hV7FX1vKv3MDD8LSKh9sqIrbtUhpmQrhsu9kLm5mOQxxmsJh9Qg4j2kBbLtN9CYqKc2nj2TW05fx6WrWtknJTMFI06vbSla+2B5w1tawuLaR/5/jZLKRVzF95+wT9XneL1Wd2LvTFxu373PTibicLmg8RRxnmtG62vOO9UfbMam+GFCgeUYs6tF1alU8nn1tH2y5ooKUbKimZE9heHpwS96wLBfr70e9vBtI2AvgGN/r0QgbaRt7RN9zknmExzObwx8hwLvDZ4i/l63Nycjm2zSEbJ6P1vu3wQFEuFsWQNraGzc9BtigpDy6PDc3QC4+10z2f2UM3X/o8Pfa9g3ScY/RkgLPklWFG/n7IjcN4b7KTaNLmma95rZMO6q4kRhfRnrMWS4vouZ9MUsdBt/gQ4ZXwgbJSUmZDOKxbsuWxePk7lsOndhu3SbEc69H/7Bw3Pr7Ow9wA7JtbzByrXd9azN66kXZc3EwNrYF9xHMBd0hFOIg7LRlxXm0xfXttCgeyQpAWz4z7oemFbAyLw8DrJdqGLHJZtfC0BUW5VMDxqaMsn4or8shemkcFjlzKK1DW45iiql9Imh9iF2Wd3xamyIJtfhY2tg5li5Ly0Ng9bRP0nz8+RLfuepb+5prn6NWnE3N3owL+Et+0PPTdP5/rnxADKukm5Z4ZUzs/8kqb4SiU3jP/7sfsmQ8k902CUCHgePBwCDQ1Ztw46n5/jD1zcmLmQHtWnC0aFjuoZUUZta5EKqeFnOwliR1h/MTezpA3Y0cocuuKGmmlh5SL+ecdo3TP4X4xbRMXRWIkCZ3wK+XdNbUx81zELBwWV5VrY4+KUUN+ldNTwcKzl9qkx42dsGI+MkbD/RxmRBSlXCY+BrkuyOaH3L7AnkPNK0pEauEE8TYuLUlJt124SWC4LvBpbryXpfGWXSkXM0KMukIbLWcRRxqafvYBFvN+jtOwGY7SIEcxl+vJ4WTLy6Fcfi9zOLfxm6t9YYrw+Iuh2x9hRLxids94yTnKYtbUp+Zd74/SSL8zhEhlGY8wnre0Oo9FWyxSy0rkJVTb7FCiihhwu+Rgkjp83+OlwQ5OPRO0bGsebfpQCdUtiq6/ONxdRv98USV9dnH6BlLS2jUXCZ+YdWrJ5y+Djd/7XCHe6D5ZIWYIT1MPcnvZHDwzi0R8QXTHh7z7A8Uz+4QcRrTIq5sLqHmlnZqWO1i0nFYVU2ll7GHCxNCsIlghXKVvHsuMGDwxJUYqwYJlBbTxglIxZbW8LvTIK3646J+PDBreYbU830ZPndoqbrSeDtIuZnXCj+o1dn7MP4HlmfsnxGR3PQ4hwNhOZ243C28kuC57eR7l8ZciHtwub8gw4wTEPKD2ZgSLON9OtOPDVbTuzHIWroMK7bG9HgzRj7CHFQNJEC9yfg9nnNF/nFoxq8DrL1pfJIS97pwSfq+Njwu/woWG37O94+J3BdXppbgaJV2T+FMmZnyGI338pssRPPUDUCb8KKAhc/Vd/quLM13MIwMcZhh44gJHDn3u+0uEJ44GFwtUP+dEeyFAvBiJWQvCtuXb7OytS2n1GY6QDWX8IgFuk4afnmibnKFHt7Wk5VK2pIhZmReMN51Pc2LeBH8Q7EW8wVoKQC/mp++boPZ9M0En8WIWYKyhAQZfIGZtPciFmOONmTnMmBxFP3Pg8SE/cUyKWby9UtDI2b7os3V03nUGv9zEm2LOiXi/5BceaWoUdSSeSGLWgnkiq08vFsJesd0uhG4EfrcFa9JxgXHCxHzsj27qPKjEaGP98bkMG4eIV9+pEfOPWMwcM2tFgjwzxDxOoyE8880/W061rUo4BY979E03DXR4hIDjuRAgXga7WcyHYh85ROiBEATx9aIN9pgbpMkitnN1GF5+bJra3nHHLWQjFBEgcVmf+7aJNg9Vj7KFf7voc8P6ZI4NULdaBqLIT6qQwb7nXfTeyzM00J5aIQviFOHkqJdefWKU7vt8F/39ruP0m+8PUNfh9P8YaMLEnBDkh+4Do2ohR9r4T6hDMYUtcwFslH22wUidWK+pT+YC2GK9YhqtV/IQx8coI3SiIG1OumDSYxxyZwwjvW76v93DdO91HfSda9rpuQeH2OOn+lupYC4x61C8HJ+YvUo+q+ZCZX58psx1q6Xt399Xn1iBHOtFUckM90dBZr5cV5+mfi9stW7xhN05l+VspPeYi55+YJDuubKNvv+ZDvrDoyPCi6cKU4tZoH72eg3ol5tsPbyyeBaZ4o2VZfOD9v3T9F/f66e7LzlGD97UTW//bly0MZKJucUM76ZP8H7qA7Y+V1PQclTHucYrK2W53LedTKqtz/Xr9UnWr6gbZVn0Z/MKr2eWDr40Sbu/3kPfuOgY/fJbfTTYlZwwxOSeWXoyTVwakPs8XZT5XPcPlYc4PqOY2TRN/zTgcnpp769H6d9uDD3Zfy5kRMysT/zESWwQdS4eyNWkemhswLm6Xax5QJ36hIe6PTLsJMvzmf72eemZGXg5oQElV72eXhKRbLUe//5zq89ny3r1xyf98ryNmdOByT0zkvRyAQkr1fVKimQH7K+Jm/kJf5xrt43F9tflS1w/4BLbyraKbZFMTO+Z9QKYqyBSVh8X/J5ZWSSyeRwzJxvzx8zs5UQ/riYP8oT6hIfBcl89sNX6dNuIFGJ/X9KuV+vR5uo2YjvxQpTXww+1bJF4zO2ZfZ+76s2izDVxq2GegvVKfKx6ZmW5sswiWWRAzIykeDhtLreIPsefUT38J59izo3q8+fYRrHV3WRmkSRMHzPr9BN/rhLt8rnmjPDPioOWNp4s75wszB8zIyEW1eRwd9CMKEabI+nqUXLddjHkKBgdH3JsIR7qDnKJWrZIPOb3zBmL8MtWzJxCTN8A9HlPXy6dmzCMcjWptj8XRbm/Wp92vX9fo+Vq7l8vFoU4PpHw4Fxs788skoS5wwzxzN5MFNScUW2BPlcxWK/f37AeFf1yg/X6egLqxxLVM6s2nqRhkXBM7plln60+F6sUO9pkWI8mjyvxcYStDw/lYPFqhK2WLRKP+WNmfP66PF709cyhKj/6+mSuxMdWzJxKzB1mQBjwcCIe9edYITPDJARltEzdX1NfyG3DJP96fz3aXNSPjfAstwcys0gS5vfMAtWjKblyMXtoQotGv79xPZFE51+vr0dbv4iYrZg5hZjcM8PbqTm8nN9WXB42UrJIttgXSV9flPsb2Yb1+Y5PvcWAsq3YBTvLskXiMXkDUHox8flzWdVBhth+z4wnZYlF8jC/ZzZIYl2sD4N6fCnOhzgOo/qQ1GNUCgKZWSSJDImZGb0SYrX1zLW+SDbj98yqjSfLOycLk3tmknOEZX+uKCu20A4/qZ5PtdWk2r71uv199WED5U95kkm1w9WP/UMeH2w8xIZ4wj7YUSlbJJ7M8cyCwBuIGxF+vX7/YC8ZW/36/f31K/GxFTOnkgyImWWuejvYkIxYjo1iyYPri26/EDkewvbXp9pYL7ZALsq+zCJJmN8za8TgK8erCt3+QmhzQVef1kZmxcypxfQxM7yc4byHmJOMazkF1qP8j7kkfb3I+b+xoGHLF4JMqFwpWySezPDMQXkk72awXr+/vt4AYqhfX49aPye/Z1a2h22RPMwtZvZicGS+JOJSTlAM//kSCLD5KcCWRXV/fhIJtrJabiATngJsmftsfsKfPmnqVzZRjh9luZdFEjF9mKEUZK6SENvAu6okzDaImS2ShunDDJ8X1SSIBXqJJfGOQfUodXGu2zbahCejOkXCen7motzYl1kkCZOHGTIBtRyvDYzWq6i2fn04W59r1zP+mFm18WT552Rh8jBD9hBgpE16PDXHA8oReRR2wP66+qLZ38gOeXxs+7fBbnhS9lbL85nqpsT+preKycMM1YtxLjSQQTYnv2dWlsOe76w9s5g+fU+DtBKL6T2zfmQNtlSOsFEUeZS2vr5Y99faMIyOT7E54YFN5ebqXvON4nIbnfnJCrr18YX0yb9riPp3umPF9A1AgSoGVQ1xqkK/v8+Ok5D1iVzrmWHLbB7FzC2rC+nq2+vo1icX0kU3VIf9Te5EYH7PzEmNQwNsFkxMSeMxA+vTbRdTMqpP2vN0BBC/5LrlklL6wk+a6fMPNNPJF5XG/aOhsWL+mFmIQbECyvGg7p+o+oBRfZyU+Fj1zMqHqSzLThA6XPqVGrr9PxfRlbfWUfMq/w93pgpziVn3WaueDs5MmyuCiTHnJ1HkJ20uViIXC2PPjY5PyXkb3kDkoqxkynI/eQWZK3D85PP6c0voz/+1kW78aQvtvKqcCovTJ6mE/eftVxRS82obFRUn+sNR68u0HKXgmBn2cI//B2o2fiiflmzO43jS5CdJDZUL8uhDf1ElGnSf+EY9Ldlkl2vSS8J+CF7L+KCX+o97qa/NI/KRXvyav1wZBhu3D66+y/9D8Lu/3kdH9kwpKtDsX9Nip0KHTVqMbr2RPT3Jx9LGdUlbXV/TKuuKsL+R7Zzw0EBH8PHBdk25aWbGw68bK2T8jJzty29cQKddVa1sq2Fmelb8hnY/p4F2HK+X69FWnFgGT0xR+8Hofgg+h79rq04pph2Xl9GKHQ41cgqgb9pDv+gapRZ7Hl3SUCqXpo6kiFmP+iENdCBBAF5yjgX/W1s+i/lOjZjvYDHvVQSIrdX3L0jMUeCc4v+riplR6xNitsdWl4pPzIz2+ICL/5/bzWL2NQTRp6gI2lGWS9f+bSst21yibBwG/LA+xN3PjgHv4XAP14eqEkA0Yi6tttHWS8to+0fKDHsj8Lr3DE7RYyzi/+2foHxW+bOnLSSHLfVnmpSI2YipURa4RtyDnV7yumcDPfMdvXQYnlmHEHNxXoB49OjF5RSeeVJaWjE7qMjgi6HfXw/WO8fdPjHrwQ84ut1u6ZmlV8ZDI+qW1XZaf1Y5LVpXTEs3RhY28HCEgvcMXlt4bxa4cxz/I3bCiXnpZjvtuKyMVp9RzGfM4HdizO2lJ7vH6Jedo9Q25Q+bPtZcTjctDz7rpIK0idmI0T4vldX6v9G7b++l91jMOfxtx2GqeW5uDuUX5VIBe9SCQs4deeINx6kPr8Yohxftb58KqAc5vhhFxbaQ+4XLlTon2Q48PuQup4c8ITxzoK0sQ4jVvNIuhL1kQ6lIpZXRDfuOD+HMpwi8n/PhbnYMHrkyDHox20tzafPFZSKUqGkJ/b//8fAA/UeH8Zfgv05ppcai5PYnhyLlYu52umlBlC/2p7dBzPCmrB7+yMPlObmzHC7kscBZ3Fx/AYvdlo8vhrLeOemmvuPwooH71S5kMfOXQb88mnxqXBGz0fqZaTd5PCxc8fZKASMXtizjEVLkXqpqLKQl60s4lYnUtLSYXyf+R3i8bvbenUpYooYoOBPqUcXcsrqIduwqow3nlkTsXXlxYJK+/PYJaQVyfl0x/f2aemmlnpSL+XNvddP74y5aW1ZE68oLaV1ZIa0pLaIiW/CbqIjZ+DQeDTaOHuC984tswluO9E3LNX7qEDNzyBIPCDP62Nsb4ebGkJvF7L98KrRoA225zOBLgG6vxWvZa68vp6Wclqwrl1/EyEyOIKzjLx83yOG94cXz7S467ePF1LA0uuFlNx/Drlc7qFMTVmh5eHMTreHPM12kXMz7Rqfp2tc7peVnWXEBbam0B8Rbj3yth957lcUS7PgSltciZuYwIx6mWMyih8SgXo+LY2aP2pshBYlH1KKObOP/NLK3XrahgsVdwXkV1TY5eH1yeKR9hL57ZEBagWwsL6KfnNworfSQ8iYnvrk7q4Pf8CMTLnqMGxOBQB0M9JCkfIA9a8/RSRrqdtL4oEt04c1GEW8KItQfqp/Z2MbWsPk5yBYl5aGx8X86j4zR759sp7d+30tDvfGfxSIxPOOh+44OSSuYT7aUy1L6SEsD8ODYNF3zWrB3Bq+fvUSWiH52Zy/t+78JLuHD0x5m8m00KBF/56OByWFKfqGN8riMLVXgmftED0nw/mj8zTVmjmRX1BbS6Zc301lXtFJpVXJmoql882AfPdE9Jq1Amu359OSOFmmlj7T1ZvzVOz30Qj+EGsjTOxdSdYFy2j/w4iTtvqOHj5LFgsM0QV5QiJ6UPCFyvHUjvRyHG2zncaNHAQKMVaRyGepR1+nslVsq6Mwrm2njWXWiZyfZHOY2zsf3dvB/NuaetfV0bq2/SzVdpE3MxydnuDHRLi0/3+Y35jzNGzPjnKWOg9PUvt/JifN90zQ+FG0ckD68nlnyeBMXM6Pxt+NP6umsq5qpfmHy4mIj/uyNLnprxCmtQM6ocdB31yVnsn2spE3MADHY/ccC4zCcsh7c3EiV+aEbZUPdbr+4OXUddokBFzOB4/GyECOLVi4L4YkblznojCsX0NYL6+IeqZwL4Rp9dlsO/Wp7C9UVpqdfWU9axQwue6Wd2nVdPQ18Gr9lRQ2dbtBQNMI9M0tdh6apTXhuJ7Wx9x7pdRud/VOWq/GysUhlGQ8DkWNYf8PZVSziBlq6oQwvMS28Oeyk69/sklYwX11eQx9tTt/x6Um7mF8bmqLP/rFbWoEsLS6gsznkuGFxpVwSPaP9Hp+w2zjvZLG7XcpLZa2xbEKTiPW41S0m6fuEHNIz++2K+nw69bJaTnVRj/4lC0wa+hjHyejFMALjAw9ubpKWOUi7mMEd+3vpNz3j0grm+kWVcQlaC2LYbg5HIGxV4INdbl4zy+LLEYJSZKiKVbXjXA8xQ6gRPDHEvnxrCZ12RS2tPb0iJQ26SPChc5zcSe+MBg8yARufev5ja5NwNmbCFGLGpJWr93RQ7zTEFQw+3n9e30CnRRl2RMvEsIfa3lWELbw3NzSn1SmXyLS6itXGZVTiYSziopIc2npxJe28ooZqW9I3ambEPYf76ecd+j5/P3+6sIK+sKRKWubBFGIGGBn8U241e0IcDoa779/YmNThUujtxAfSe7+rCLyvjeP5uN4hIWHpmaWgOW9cXkin7qqizRdWiO49s/Fc3wTd9G6PtILBJCI0+vJNcAbRYxoxA8zEwoysUJTm5dIDmxppeUnqTm9TY14ZeyvhCcpT4/Cy0aAIOJcb++vPKaFTdlXQonWp7VaLhT8MTNKXQkwiUrl/0wLaXGGOK0v0mErMINRgikpVgY1+zIJe6EhfA6nnqEuIuv3ANB1720k97M2NwHTWHZeX0/aPlFNxReq71WIBs+Hw3mMyUShuXlFDVzeZp/dCj+nEPMUNNTQ+3hs3Fgi4bEEp3bGqVlrpxzXF3nv/NB1/x0lvPz9BrgkvXfT5Klp3dnQT7tMNnAeEHI5Pt1bQl5aaL07WYjoxg0GXR8zd0DcIEaZ9ZlElXb+wUpS1THAj8tD4NO/joSHeH4FACYclNYV5tIy9eH2Uc6jnG89zjHzzvt6QbRVwnpynbL4oORBTihm8P+Gi617vokkxJ5hP2SzM76xroE0VRcIGLu8svTQ4SS8PTtGrnPSDLyqItbdW2mk7p1OrHWm7EsJs/LZ3nL7GQg4H3rcfbVwgLXNjWjGDN4addMMfu8mRl0M/3LCAVpX6ezJeG56iJ7rG6Kkw/dNGbCgvpA8vKKMPN5Swdze7r0keEPJtLORwHz76kR/a3CSGrTMBU4sZPNM7IS5d1wr5Zx0jtJtT55Rxv3Q0fLy5nD7RUj4vvfS97w/SQ23D0jKmid8XjPChwZ0pmF7Men5yTJmclIh5RR+qL6G/WFxJrfb0Dh2nig4Ow25hb3xgzHhkTwVh2SNbmsSkr0zCfL32YdjdPkL3JUjI4Lccojx0fJhGZ6LtN85cfn1ijD6+tzOikCFghBaZJmSQMWJGAw+hhSfB5xFcPYG78GQraEDfsq+H/uZAn68xHQo09nazR05nH/5cyAgx40N4nEWH2xQkg1+xmF/nBmW2AS/80T0dot0RCVzD9wNuZBdziJGpZMSRY3TqGW59Jwt8STAnIVtAP/3fHuqnT7/eRV0RHEBBbg59a00d/eWy6qC++0wjI8T8EocYyQb/Q3ubqUwEA0f/8v4gXfJymzjbhBsIATUFNhEfX1CXGSOVkTC9mAfYy7zCnjnZtE3O0DshrnMzOxg8QlcbRPwg59OYkByBk0oL6WfbmmlFCidtJRvTixlxXx8LOhUcGAs9H8SsPN41RpeyiNF3PMqeORpwc0N0vYW7zjITMb2YT4SYsJ8MjrJ3zgRwnN9j8V740nG6+1Af9Uf5ZYc3fpS9cbru0plsTD9oggGScHfSSSQrSgrF5UBmBI06XFr23yfGws4oNAKjeF9eWkV/0lBq+slCc8H0njlSIyaRIPbU8mjnKL3CDcNI/bPJArEvBjtws8nz/3BcXPIfq5AxZI+7DV2S5UIGpvfMD7eN8Ck19NUniWRNWRE9vFm5+R/elO0vHBVfJohgcXGBuCJ5nbx76RJHQUK7svA9wkzB/dxGEGl0mg6zPRNFY86IDeVF9PVVtbQoQwdA4sH0YsasuNv3h5+mmCguZu/1zZOUSf9DMx4678XjomxEISt5NYsb3VvVBXkix+kcN0SpyM8V5XouOz2z4oLdcfbuY1ynk8WJy/fFMk6Id3H9Y6g7BsUK/v9fLqvKmu62WDC9mHFaxX3OUsEXl1TRdQsrRBne8VMhbu5oRjDPe1djGZ1fW2zKi01Tgelj5mXF+eK+zckG94JYy6dmlbczoM8ZFyxgKusTHBPjusiL60vmrZCB6cWMCfS4QiTZbK8soi2aq1iejmI+Q7pAPHwXh0O/3bmQ/np5NbXMkymskTC9mAFuTr44yQ0Z3AZMBdceJiqGTRRofF7XWiHuWfFvJzeK3gnMq7DwkzGT8zFci1GuZHAOC/lO9nTF8rfr8IZ8MOESgn5rZFqEHKmct4ELceF98dMKSGtZyJZwI5MxYh6Z8dI/HRkQgwaJBHMTMGNsW4RQZmTGQ3+Uwn5r1Cm6zqKZAxEN6PVAA04VL669s7QbOxkjZoCfj7j3g0ExUT8RVOXb6Mss5Esa4uvGwiw1dLkhn/DM0hSXcdWKugyDLWiQlbDHxzxheH54XYctJ8C2vG5iyCgxg3fZIz7MIcfv5jj/GL9u9anW8rT8xrNFcsg4MQNcmPmLLuWnbuMZaj6zxiFuM7Wjyrz3fbOInYwUswpuK/Vc36S44V+om2JrwTVuaOxdWF8i+mgtsouMFrPKPm6Qvc3hx8Exl/g9QdyeC1dwIx5dXJxPyzmkQI/AKeyJM+R+JhZxkBVitrAA1rnWImuwxGyRNVhitsgaLDFbZA2WmC2yBkvMFlmDJWaLrMESs0XWYInZImuwxGyRNVhitsgaLDFbZA2WmC2yBkvMFlmDJWaLrMESs0XWYInZIksg+n92dZuMnEYu+gAAAABJRU5ErkJggg==;" vertex="1" parent="1">
          <mxGeometry x="549" y="380" width="20" height="19.44" as="geometry" />
        </mxCell>
        <mxCell id="1UHYk_NCJkt_y42l1zSV-17" value="planejamentooperacional-dev" style="image;aspect=fixed;html=1;points=[];align=center;fontSize=12;image=img/lib/azure2/storage/Storage_Accounts.svg;" vertex="1" parent="1">
          <mxGeometry x="220.5" y="399.44" width="65" height="52" as="geometry" />
        </mxCell>
        <mxCell id="1UHYk_NCJkt_y42l1zSV-22" style="edgeStyle=orthogonalEdgeStyle;rounded=0;orthogonalLoop=1;jettySize=auto;html=1;" edge="1" parent="1" source="1UHYk_NCJkt_y42l1zSV-19" target="1UHYk_NCJkt_y42l1zSV-21">
          <mxGeometry relative="1" as="geometry" />
        </mxCell>
        <mxCell id="1UHYk_NCJkt_y42l1zSV-19" value="User" style="shape=umlActor;verticalLabelPosition=bottom;verticalAlign=top;html=1;outlineConnect=0;" vertex="1" parent="1">
          <mxGeometry x="759" y="250" width="30" height="60" as="geometry" />
        </mxCell>
        <mxCell id="1UHYk_NCJkt_y42l1zSV-23" value="bot" style="edgeStyle=orthogonalEdgeStyle;rounded=0;orthogonalLoop=1;jettySize=auto;html=1;entryX=1;entryY=0.5;entryDx=0;entryDy=0;startArrow=classic;startFill=1;endArrow=classic;endFill=1;" edge="1" parent="1" source="1UHYk_NCJkt_y42l1zSV-21" target="1UHYk_NCJkt_y42l1zSV-3">
          <mxGeometry x="-0.5631" relative="1" as="geometry">
            <mxPoint as="offset" />
          </mxGeometry>
        </mxCell>
        <mxCell id="1UHYk_NCJkt_y42l1zSV-21" value="Telegram" style="shape=image;verticalLabelPosition=bottom;labelBackgroundColor=default;verticalAlign=top;aspect=fixed;imageAspect=0;image=data:image/png,iVBORw0KGgoAAAANSUhEUgAAACAAAAAgCAMAAABEpIrGAAAAvVBMVEUAAABHt/Qwpd43sOwzq+c3ruo4sOg/tO83sOc4rOk3r+c1rOg4r+g6r+kvo980quY4qOgzqOQ3p+c0p+QwqOAwpt9TsOaV0O7Y8Pgvpd8yqOJuwOfM6Pj///94w+oxpuFMsOCg0/Dw+PzA4PNArODi8Pi44PD4//8wpOAtotowpd5fuOOw3PCDyOgwoOAuo90qn9ctodswoNgsoNkqntUqndQrn9gnn9MooNgqntYontYqndUvn9konNQom9Nm6UXDAAAAPXRSTlMACEiYwN7wGJj/gP/IMBj/yP+A8P+Y////8P///////////////////9j////////E////8Jj/gP//4P8wnkXuQgAAAbhJREFUeAFsjgMCgEAQALNtu/9/sUWuOawhXIiSrKiapiqyJApfdEMzTzRDf4VFC8I2YNp7iiU+yh0Iv3BuTVwVwm9M1T3inur7ts9uUOCyVL19fuD/Ewa8R0SGH8I9IocS0YAYAxC9SJLET9AX45A0fJNkeVFkpKawQRlWYQU3RInUTQt05CtFQer7qq/gshzGqSXqipCEtD9J+npuDwb2pYJyxpd8xcjUbWXTRQKDMBAF0Kms2dTdWyweXO5/rM4UqT0smR8c7rh+TF334B4OY/Bc13dRED52JLxuqHGbUt33PVj5vu9O2ZJCrAdTzNGF+8Rd0QDB2/hxWnPK0QkHkBV4QggehHTt24BztmvsuXjxQDYNftwEiusmR0E7QMJMKWpgqJQ67jpr6qIZDFXD0Erf2/ymRVMewsBiZogi++ZBXqiGgR0AROaLH+7QwjQiet02/qC1DvCBzrXBjrEOoCT+ZIzW+01qYoNzAmQgs0acYY5Bljb9VA7gxcmLIisynAvSt3MHWmVeVEWFc0FbQpu8hJ4jqz/SgQ+DxGKtruqOTQbwzYls3bORA/8Gw0h61noy+vz9n00ab2KwYRKTAAAAAElFTkSuQmCC;" vertex="1" parent="1">
          <mxGeometry x="669" y="260" width="40" height="40" as="geometry" />
        </mxCell>
        <mxCell id="1UHYk_NCJkt_y42l1zSV-32" value="" style="rounded=0;whiteSpace=wrap;html=1;" vertex="1" parent="1">
          <mxGeometry x="39" y="630" width="601" height="206" as="geometry" />
        </mxCell>
        <mxCell id="1UHYk_NCJkt_y42l1zSV-29" value="Eneva Corp DEV" style="shape=image;verticalLabelPosition=middle;labelBackgroundColor=default;verticalAlign=middle;aspect=fixed;imageAspect=0;image=data:image/png,iVBORw0KGgoAAAANSUhEUgAAACQAAAAsCAYAAAANUxr1AAAAAXNSR0IArs4c6QAAAARnQU1BAACxjwv8YQUAAAAJcEhZcwAADsMAAA7DAcdvqGQAAANuSURBVFhH7ZdNSFRRGIbfM+pcHUlQqaBEw8Tox4zIRYsWbtpVRFAtIiKCglbRLoKioF2bFi1r0c4gywohauGqwIpaCUKaGZqVpdiM4/yd3u/ec6MGZ+6dM1Qu5oGvc+/58bz3Pd85Z1KaYAURMeWKoSIoiIqgICqCgrAXNDUAPdQLPdgJ/fIMsPTFNJSH3cE4fhMYvQL4I6WMrgV2PwRirV6dJaU79PEW9Nhl6OocdHM3sOE4dF0DdPYT9PBBIDllOtpRmkPTd+jMeRkFNPYCXX1efXICeN4D5PjstAE9j1jSMQvCO/S5D/rdOaCGs1ZT0KoO00CcdYw6uqahUxPQrw4B6TnTWBrhBM0yN8bOQtXwWSJKQfP3GE858QwwyXyKxKGqaR7bVWoUeM3ly8y7w0sheMm+P4EePQYVyXJSdlWsk/CR0W4o5hGbslKyQ4YR64ba9QCoirldw1DcofQsnTnNL+dM/HpUMf4oqcR/Z4hD8q5Yr7h8KvGWOXeJleEp7tDkNWDmujexSE9T2FyGDzJEbDKlFJLQUtIpNDmuQ1pcykSg9oxwmZvYGExxh1TK+3rpZVzwZs0vGbLzRKPgOyYhy6zlI8JRXFDzYfaIMvhHI7RAJv1Bl/Ijzkj4JSeXfhyjpVy9lztwjfmDwQQn9cIz4MNRfnGa5w1FLRXpTj3I0aZ6JlKW3+rsBLb0c2y91x6CcAdjfIgn9BFanzQVBZA88neYw1N8k+ywBq8tJOFP6sVhJvkBTpowFcsg7oigKMV0lC5GCC9ISL7h8u3jxAumIg9xqGYr0D5oJUYontT51O4AWh9zVIHJHBHDe8xSjFCaIKF2O++x/eblNzR3Y9sAxTSaCjtKFyTIhSW7LSFrRCR3ctyF0xf5Ej4DlsNOkMwpZ848Q5JYtrucfV/vUui49LDGTpC7mzhUrgkR5DrE940U5LSbTnZYCmKIK74zEvK8+J7/lIe9Q7JsvlMSchiOXeAF/M3rY4mdIHEjbX73MJc1Q97ReZvnULhbvRCWgjxnlLtkLNPGofj/WjKzs+T3jrjjBZ9HrgKp/7Fksc08AKNQjuO6o8QliW03Qv8QK4SdoNaT0C0nmEORX+6gi2LW838b5SKXqx05nXtxSuf6W7SevG/qyqe02/4fYLdkf5GKoCAqgoKoCCoO8BP1wM7665oKLwAAAABJRU5ErkJggg==;labelPosition=right;align=left;" vertex="1" parent="1">
          <mxGeometry x="49" y="36" width="36" height="44" as="geometry" />
        </mxCell>
        <mxCell id="1UHYk_NCJkt_y42l1zSV-31" value="" style="dashed=0;outlineConnect=0;html=1;align=center;labelPosition=center;verticalLabelPosition=bottom;verticalAlign=top;shape=mxgraph.weblogos.github" vertex="1" parent="1">
          <mxGeometry x="59" y="640" width="44.12" height="40" as="geometry" />
        </mxCell>
        <mxCell id="1UHYk_NCJkt_y42l1zSV-33" value="ORG: IAC" style="rounded=0;whiteSpace=wrap;html=1;labelPosition=left;verticalLabelPosition=top;align=right;verticalAlign=bottom;" vertex="1" parent="1">
          <mxGeometry x="189" y="666" width="431" height="140" as="geometry" />
        </mxCell>
        <mxCell id="1UHYk_NCJkt_y42l1zSV-34" value="Repo: Planejamento Operacional" style="rounded=0;whiteSpace=wrap;html=1;labelPosition=left;verticalLabelPosition=top;align=right;verticalAlign=bottom;" vertex="1" parent="1">
          <mxGeometry x="380" y="716" width="219.5" height="60" as="geometry" />
        </mxCell>
        <mxCell id="1UHYk_NCJkt_y42l1zSV-35" value="" style="shape=image;verticalLabelPosition=bottom;labelBackgroundColor=default;verticalAlign=top;aspect=fixed;imageAspect=0;image=data:image/png,iVBORw0KGgoAAAANSUhEUgAAAMgAAACWCAMAAACsAjcrAAAAsVBMVEX///9fQ+lAQLJdQOnQyvjc2PlnTepVM+i/t/Xu7PxNKeeSks8vL677+/1fX7w8PLFwWetXN+haPOlRL+j39v44OLDx8P3FvfY0NK/m4/vIwfbg3Pq1q/TZ1Pm5sPR+auxFGeebjfCUhO9YWLmroPPg4PAZGamamtJISLR6ZeyHh8oqKq1sU+uMe+4jI6s+CuahlPGurtrX1+yAgMi9veLNzehqasBzc8JRUbcOD6iGdO78haf6AAAE70lEQVR4nO3bbVuqMBgH8I0pEEm4IUqp+USZhp5K7Xj6/h/sDCWfGA+ltY1r/7fnuuz+HbjZxhgAKioqKioqKioqQqTBu4BLxRw2eZdwmZh/XLMUFNOC1keLdxUXCIVAjHq3vOs4OxEEQmINZadsIRC6+r3crfIJgcTo3fEu5pzsIBFlIvH9dQCJWuWlzbug7+YIQlslvJd0rD+BQILrcrbKKQRC1O+1bd5lfT1JCB0giYStwoJAZIQd2S4KExJR9IpclBRI1CqzKu/ivpJUCIQGHFzxLq94MiAQYShPq2RBKMUK7yQZILMh0axlIIckDwJRKEej5EPqFGJf6Kpc6ncYKQbpDiuX+GMP4+tL/AwzxSBViF7OX6u8jh65Q3SCUXDeo/jtxndq/CHozEfxw+LR0zQhINFaZfbNVmmOn2qaJgyETvDh4DvvWpZPvqMJBaETMCv4IsVejeZaHIEgEFqT1le6/m367GlCQiBBveIT/PG6pmmCQijFLfaG1V7W4uYQFEJbBXfyp2Cr97l2HPEgELk9M/uXH6aer4kPofcXqWfcX/ZYSzAEhWzWKimvjRpL/znJEBYSbUZ0WKPK8u+zw3KIC4HImCT27ZoLh3FX/Tikn1JiMchmWX97OEA2xwcD4C9CbocEnwWJRpWX3QDZWD4xm+PnIcDuTjIvSj6Ejip6sJ3gr959dnP8AoRSTIjT6ywCgQjr0UVZ+Ol31S9A6A0R6MZZEPr8oisVe5R5OX4BAkB34JKzIEYEueEPoa2iW8xiZYPQmHWDUa6EEHAVwGSryAihBQ/7p60iJ4SWHOJjiqwQAO4n7mHV8kJoq+CDVpEYQidgs/2oIjWEDpATQkoBAY37ulUKSNQqfVwKCKUMES4FBIDKh4FLAQFNU4elgNDqgpJANikNpIsuA5lPOUMa20fxmRDncfTAGUIpM5hJyYc4/mjFW7FJZWalLOsLQZ7XY1E+amm0IHtZXwDi/bvmf1fRNLe7Os0Apb0By4R4/rsQDPrU0uMNqtsZYrdKBsSp3Sw5179LVbfiDSq78sF8w5oOqWmv4pyDoAMiIfERgIZJGK+N0iDe40IcRjyyk368l2sHeoLChnjOX0GaI048RXE/W6U6wDgf4sxvloJ93Pk519ptUCU2IxiQWk2g5oiznzQSqx4fAWiFh4/iBMR3poJdjSiHs1/ixkcAmoHupkE8f/HGuWZmjqfxbhhvUFX3mxHHkPl6JeDlAIn1CMLh3aZQuxoa5BTieN6rKNOq0yQWVqjfq27/z83J5lG8h/hPU1EZzBUiJvFnD1cdYuwhznwhxmSdHdZSF2G9s/3X9qxPYsjcWYl7OUDamh25qLUtuz2xIsh6/cq50LykvXxA1kd32/WdavRFkPCf0ae/RcFQquPKWd+iYKMjdFscJfu9lhW2ZKHkvKAj1qzLu8RiyX3TiMlFzmX8eIq9MpUgCiJaFES0KIhoURDRoiCiRUFEi4KIFgURLaWBtPWcLzhkgeSdlpEGAk43qCSGHG9QyQw52qCSGwLsaj2NIhcE7Dao5IeAqw5iHSyTD7LdoCoFJNqgIqcUOSGb0zLlgNBWsYxSQKIjAIensSSGANDt7VtFaghomHWrFJBoAhZ/oi07hFKGm0+05YdEp2XoBKwMENBsQbcUEJrALQkEtGX6kENFRUVFRUVFRQX8BwlJZ/MUDqBEAAAAAElFTkSuQmCC;" vertex="1" parent="1">
          <mxGeometry x="525.6700000000001" y="726" width="53.33" height="40" as="geometry" />
        </mxCell>
        <mxCell id="1UHYk_NCJkt_y42l1zSV-36" value="Terraform" style="rounded=0;whiteSpace=wrap;html=1;" vertex="1" parent="1">
          <mxGeometry x="400" y="726" width="120" height="40" as="geometry" />
        </mxCell>
        <mxCell id="1UHYk_NCJkt_y42l1zSV-39" style="edgeStyle=orthogonalEdgeStyle;rounded=0;orthogonalLoop=1;jettySize=auto;html=1;entryX=0.5;entryY=0;entryDx=0;entryDy=0;" edge="1" parent="1" source="1UHYk_NCJkt_y42l1zSV-37" target="1UHYk_NCJkt_y42l1zSV-32">
          <mxGeometry relative="1" as="geometry" />
        </mxCell>
        <mxCell id="1UHYk_NCJkt_y42l1zSV-40" style="edgeStyle=orthogonalEdgeStyle;rounded=0;orthogonalLoop=1;jettySize=auto;html=1;entryX=0.5;entryY=1;entryDx=0;entryDy=0;" edge="1" parent="1" source="1UHYk_NCJkt_y42l1zSV-37" target="1UHYk_NCJkt_y42l1zSV-28">
          <mxGeometry relative="1" as="geometry" />
        </mxCell>
        <mxCell id="1UHYk_NCJkt_y42l1zSV-37" value="TI: Responsável por executar o terraform de forma manual" style="shape=umlActor;verticalLabelPosition=bottom;verticalAlign=top;html=1;outlineConnect=0;" vertex="1" parent="1">
          <mxGeometry x="324.5" y="540" width="30" height="60" as="geometry" />
        </mxCell>
      </root>
    </mxGraphModel>
  </diagram>
</mxfile>
